<svg xmlns="http://www.w3.org/2000/svg" width="100" height="70" viewBox="0 0 100 70">
    <g fill="none" fill-rule="evenodd">
        <path d="M0 0h100v70H0z"/>
        <g transform="translate(23 15)">
            <rect width="24" height="6" x="30" y="29" fill="#FFF" stroke="#636363" stroke-width="1.5" rx="3"/>
            <rect width="24" height="6" x="30" y="23" fill="#FFF" stroke="#636363" stroke-width="1.5" rx="3"/>
            <rect width="24" height="6" x="30" y="17" fill="#FFF" stroke="#636363" stroke-width="1.5" rx="3"/>
            <rect width="24" height="6" x="30" y="11" fill="#FFF" stroke="#636363" stroke-width="1.5" rx="3"/>
            <path fill="#636363" fill-rule="nonzero" stroke="#FFF" stroke-width=".5" d="M30.447 13.06c5.75 1.629 9.803 6.846 9.803 12.837 0 7.364-6.07 13.353-13.531 13.353a13.578 13.578 0 0 1-9.806-4.162h-9.1c-2.12 0-3.844-1.702-3.844-3.796 0-1.068.452-2.064 1.225-2.774a3.763 3.763 0 0 1-1.225-2.775c0-1.068.452-2.064 1.225-2.775a3.763 3.763 0 0 1-1.225-2.774c0-1.068.452-2.065 1.225-2.775a3.763 3.763 0 0 1-1.225-2.775c0-2.094 1.725-3.795 3.843-3.795h1.593a3.733 3.733 0 0 1-.436-1.754c0-.62.152-1.218.436-1.754H3.594C1.474 7.34-.25 5.639-.25 3.545-.25 1.452 1.475-.25 3.594-.25h19.14c2.12 0 3.844 1.702 3.844 3.795 0 .62-.152 1.219-.436 1.754h5.811c2.119 0 3.844 1.702 3.844 3.796s-1.725 3.795-3.844 3.795h-1.59c.03.056.057.113.084.17zm1.506-5.72h-19.14c-.983 0-1.782.789-1.782 1.755 0 .966.799 1.754 1.781 1.754h19.141c.983 0 1.781-.788 1.781-1.754s-.798-1.754-1.78-1.754zM3.593 5.3h19.141c.983 0 1.782-.788 1.782-1.755 0-.966-.799-1.754-1.782-1.754H3.594c-.983 0-1.782.788-1.782 1.754 0 .967.799 1.754 1.782 1.754zm13.625 11.098a13.559 13.559 0 0 1 6.436-3.508H7.812c-.982 0-1.78.788-1.78 1.754s.798 1.754 1.78 1.754h9.406zm-3.425 5.55A13.232 13.232 0 0 1 15.5 18.44H7.812c-.982 0-1.78.787-1.78 1.754 0 .966.798 1.754 1.78 1.754h5.98zm-.508 5.549a13.204 13.204 0 0 1 .041-3.508H7.812c-.982 0-1.78.788-1.78 1.754s.798 1.754 1.78 1.754h5.473zm2.01 5.55a13.208 13.208 0 0 1-1.595-3.509H7.812c-.982 0-1.78.788-1.78 1.754 0 .967.798 1.754 1.78 1.754h7.484zm11.424 4.162c6.324 0 11.469-5.076 11.469-11.312s-5.145-11.311-11.47-11.311c-6.324 0-11.468 5.075-11.468 11.311S20.394 37.21 26.719 37.21z"/>
            <circle cx="27" cy="26" r="12" fill="#EC703A"/>
            <text fill="#FFF" font-family="Montserrat-Bold, Montserrat" font-size="16" font-weight="bold">
                <tspan x="22.208" y="32">+</tspan>
            </text>
        </g>
    </g>
</svg>
