<svg xmlns="http://www.w3.org/2000/svg" width="19" height="19" viewBox="0 0 19 19">
    <g fill="#8E8E8E" fill-rule="nonzero">
        <path d="M14.978 11.74c-.388-.404-.856-.62-1.352-.62-.492 0-.964.212-1.368.616l-1.264 1.26c-.104-.056-.208-.108-.308-.16-.144-.072-.28-.14-.396-.212-1.184-.752-2.26-1.732-3.292-3-.5-.632-.836-1.164-1.08-1.704.328-.3.632-.612.928-.912l.336-.34c.84-.84.84-1.928 0-2.768L6.09 2.808c-.124-.124-.252-.252-.372-.38-.24-.248-.492-.504-.752-.744-.388-.384-.852-.588-1.34-.588-.488 0-.96.204-1.36.588l-.008.008-1.36 1.372a2.926 2.926 0 0 0-.868 1.86C-.066 6.092.278 7.18.542 7.892c.648 1.748 1.616 3.368 3.06 5.104a18.824 18.824 0 0 0 6.268 4.908c.92.436 2.148.952 3.52 1.04.084.004.172.008.252.008.924 0 1.7-.332 2.308-.992.004-.008.012-.012.016-.02.208-.252.448-.48.7-.724.172-.164.348-.336.52-.516.396-.412.604-.892.604-1.384 0-.496-.212-.972-.616-1.372l-2.196-2.204zm1.432 4.212c-.004 0-.004.004 0 0-.156.168-.316.32-.488.488-.26.248-.524.508-.772.8-.404.432-.88.636-1.504.636-.06 0-.124 0-.184-.004-1.188-.076-2.292-.54-3.12-.936a17.768 17.768 0 0 1-5.904-4.624c-1.364-1.644-2.276-3.164-2.88-4.796-.372-.996-.508-1.772-.448-2.504.04-.468.22-.856.552-1.188L3.026 2.46c.196-.184.404-.284.608-.284.252 0 .456.152.584.28l.012.012c.244.228.476.464.72.716l.38.388 1.092 1.092c.424.424.424.816 0 1.24-.116.116-.228.232-.344.344-.336.344-.656.664-1.004.976-.008.008-.016.012-.02.02-.344.344-.28.68-.208.908l.012.036c.284.688.684 1.336 1.292 2.108l.004.004c1.104 1.36 2.268 2.42 3.552 3.232.164.104.332.188.492.268.144.072.28.14.396.212.016.008.032.02.048.028.136.068.264.1.396.1.332 0 .54-.208.608-.276l1.368-1.368c.136-.136.352-.3.604-.3.248 0 .452.156.576.292l.008.008 2.204 2.204c.412.408.412.828.004 1.252zM10.242 4.508c1.048.176 2 .672 2.76 1.432a5.099 5.099 0 0 1 1.432 2.76.537.537 0 0 0 .532.448c.032 0 .06-.004.092-.008a.54.54 0 0 0 .444-.624 6.17 6.17 0 0 0-1.732-3.34 6.17 6.17 0 0 0-3.34-1.732.543.543 0 0 0-.624.44.534.534 0 0 0 .436.624zM18.93 8.36a10.15 10.15 0 0 0-2.852-5.5 10.15 10.15 0 0 0-5.5-2.852.538.538 0 1 0-.176 1.064 9.088 9.088 0 0 1 4.916 2.548 9.062 9.062 0 0 1 2.548 4.916.537.537 0 0 0 .532.448c.032 0 .06-.004.092-.008a.53.53 0 0 0 .44-.616z"/>
    </g>
</svg>
