<svg xmlns="http://www.w3.org/2000/svg" width="24" height="24" viewBox="0 0 24 24">
    <g fill="#8E8E8E" fill-rule="nonzero">
        <path d="M16.64 13.907c-.328-.34-.722-.523-1.141-.523-.415 0-.814.18-1.154.52l-1.067 1.063c-.088-.047-.176-.09-.26-.135-.122-.06-.236-.118-.334-.179-1-.634-1.907-1.461-2.778-2.531-.422-.534-.706-.983-.912-1.438.277-.253.534-.517.783-.77.095-.094.19-.192.284-.287.709-.709.709-1.627 0-2.336l-.922-.921c-.104-.105-.212-.213-.313-.32-.203-.21-.416-.426-.635-.629-.328-.324-.72-.496-1.13-.496-.413 0-.811.172-1.149.496l-.006.007-1.148 1.158a2.47 2.47 0 0 0-.732 1.57c-.081.985.209 1.903.432 2.504.546 1.475 1.363 2.842 2.582 4.307a15.885 15.885 0 0 0 5.29 4.142c.776.368 1.812.803 2.97.878.07.003.145.006.212.006.78 0 1.435-.28 1.948-.837.003-.006.01-.01.014-.017.175-.212.378-.405.59-.61.145-.139.294-.284.44-.436.333-.348.509-.753.509-1.168 0-.418-.179-.82-.52-1.158l-1.853-1.86zm1.208 3.555c-.003 0-.003.003 0 0-.131.142-.266.27-.412.412-.219.209-.442.428-.651.675-.34.364-.743.536-1.27.536-.05 0-.104 0-.154-.003-1.003-.064-1.935-.456-2.633-.79a14.994 14.994 0 0 1-4.983-3.902c-1.15-1.387-1.92-2.67-2.43-4.047-.314-.84-.429-1.496-.378-2.113a1.55 1.55 0 0 1 .466-1.003l1.15-1.15c.166-.156.342-.24.514-.24.213 0 .385.128.493.236l.01.01c.206.192.402.391.607.604.105.108.213.216.321.328l.922.921c.357.358.357.689 0 1.046-.098.098-.193.196-.29.29-.284.291-.554.561-.848.824-.007.007-.013.01-.017.017-.29.29-.236.574-.175.767l.01.03c.24.58.577 1.127 1.09 1.779l.003.003c.932 1.148 1.914 2.042 2.998 2.728.138.087.28.158.415.226.122.06.236.118.334.179.014.006.027.017.04.023a.732.732 0 0 0 .335.085c.28 0 .456-.176.513-.233l1.154-1.155c.115-.114.298-.253.51-.253.21 0 .382.132.486.247l.007.006 1.86 1.86c.348.345.348.699.003 1.057zM12.643 7.804a4.28 4.28 0 0 1 2.33 1.209 4.303 4.303 0 0 1 1.208 2.329c.037.223.23.378.449.378a.456.456 0 0 0 .452-.533 5.206 5.206 0 0 0-1.462-2.819 5.206 5.206 0 0 0-2.818-1.461.458.458 0 0 0-.527.37.45.45 0 0 0 .368.527zM19.975 11.055a8.565 8.565 0 0 0-2.407-4.641 8.565 8.565 0 0 0-4.641-2.407.454.454 0 1 0-.149.898 7.67 7.67 0 0 1 4.149 2.15 7.647 7.647 0 0 1 2.15 4.149c.037.222.23.378.449.378.027 0 .05-.004.078-.007a.447.447 0 0 0 .37-.52z"/>
    </g>
</svg>
