<svg xmlns="http://www.w3.org/2000/svg" width="19" height="20" viewBox="0 0 19 20">
    <g fill="#E84C0A" fill-rule="nonzero">
        <path d="M14.747 12.225c-.382-.397-.843-.61-1.332-.61-.484 0-.949.209-1.346.606l-1.245 1.24c-.102-.054-.205-.105-.303-.157a5.004 5.004 0 0 1-.39-.208c-1.166-.74-2.225-1.706-3.241-2.954-.492-.622-.823-1.146-1.063-1.678.323-.295.622-.602.913-.898.11-.11.22-.224.331-.334.827-.827.827-1.898 0-2.725L5.996 3.43c-.122-.122-.248-.248-.366-.374a18.594 18.594 0 0 0-.74-.732c-.383-.378-.84-.58-1.32-.58-.48 0-.945.202-1.339.58l-.008.008-1.339 1.35A2.881 2.881 0 0 0 .03 5.515c-.095 1.15.244 2.22.504 2.922.638 1.72 1.59 3.316 3.013 5.025a18.532 18.532 0 0 0 6.17 4.832c.906.43 2.115.937 3.466 1.024.083.004.17.008.248.008.91 0 1.674-.327 2.272-.977.004-.008.012-.012.016-.02.205-.248.441-.472.69-.712.169-.162.342-.331.511-.508.39-.406.595-.879.595-1.363 0-.488-.209-.957-.606-1.35l-2.162-2.17zm1.41 4.147c-.005 0-.005.004 0 0-.154.166-.312.315-.481.48-.256.245-.516.5-.76.788-.398.425-.867.626-1.48.626-.06 0-.123 0-.182-.004-1.17-.074-2.257-.531-3.072-.921a17.493 17.493 0 0 1-5.812-4.553C3.027 11.17 2.129 9.673 1.534 8.067c-.366-.981-.5-1.745-.44-2.466.038-.46.216-.842.543-1.17L2.979 3.09c.193-.181.398-.28.599-.28.248 0 .449.15.575.276l.012.012c.24.224.468.457.709.705l.374.382 1.075 1.075c.417.417.417.803 0 1.22-.114.115-.225.229-.339.34-.33.338-.646.653-.988.96-.008.008-.016.012-.02.02-.339.339-.276.67-.205.894l.012.035c.28.678.673 1.316 1.272 2.076l.004.004c1.087 1.339 2.233 2.382 3.497 3.182.162.102.327.185.484.263.142.071.276.138.39.21.016.007.032.019.048.027.133.067.26.098.39.098a.842.842 0 0 0 .598-.272l1.347-1.346c.134-.134.346-.296.595-.296.244 0 .445.154.567.288l.008.008 2.17 2.17c.405.401.405.815.003 1.232zM10.084 5.105a4.994 4.994 0 0 1 2.717 1.41 5.02 5.02 0 0 1 1.41 2.717c.043.26.268.441.524.441.031 0 .059-.004.09-.008a.532.532 0 0 0 .437-.614 6.074 6.074 0 0 0-1.705-3.288 6.074 6.074 0 0 0-3.288-1.705.534.534 0 0 0-.614.433.526.526 0 0 0 .429.614zM18.637 8.898a9.993 9.993 0 0 0-2.808-5.415A9.993 9.993 0 0 0 10.415.675a.53.53 0 1 0-.174 1.047 8.948 8.948 0 0 1 4.84 2.509 8.922 8.922 0 0 1 2.509 4.84c.043.26.268.44.524.44a.522.522 0 0 0 .524-.614z"/>
    </g>
</svg>
