<svg xmlns="http://www.w3.org/2000/svg" width="19" height="19" viewBox="0 0 19 19">
    <g fill="#E84C0A" fill-rule="nonzero" transform="translate(.333 .333)">
        <path d="M15.928 2.735A9.267 9.267 0 0 0 9.328 0C6.835 0 4.495.97 2.73 2.735c-3.41 3.41-3.647 8.868-.588 12.55-.3.603-.782 1.306-1.496 1.657a.875.875 0 0 0 .253 1.65c.177.027.43.055.737.055.825 0 2.04-.193 3.284-1.09a9.333 9.333 0 0 0 11.011-1.626 9.265 9.265 0 0 0 2.736-6.598 9.27 9.27 0 0 0-2.74-6.598zm-.754 12.443A8.267 8.267 0 0 1 5.14 16.465a.53.53 0 0 0-.647.082.175.175 0 0 0-.044.032c-1.07.829-2.119 1.002-2.814 1.002h-.004c.802-.584 1.307-1.452 1.603-2.127a.545.545 0 0 0 .027-.343.554.554 0 0 0-.13-.3C.243 11.547.393 6.575 3.48 3.489c3.224-3.225 8.47-3.225 11.69 0 3.228 3.224 3.228 8.465.004 11.689z"/>
        <circle cx="9.333" cy="9.333" r="1"/>
        <circle cx="12.727" cy="9.333" r="1"/>
        <circle cx="5.939" cy="9.333" r="1"/>
    </g>
</svg>
