<svg xmlns="http://www.w3.org/2000/svg" width="28" height="28" viewBox="0 0 28 28">
    <g fill="#FF4C00" fill-rule="nonzero" transform="translate(.667 .667)">
        <path d="M22.754 3.907A13.238 13.238 0 0 0 13.327 0 13.238 13.238 0 0 0 3.9 3.907c-4.872 4.871-5.21 12.668-.84 17.928-.43.863-1.117 1.866-2.137 2.368a1.24 1.24 0 0 0-.683 1.308 1.25 1.25 0 0 0 1.043 1.049c.254.039.615.078 1.055.078 1.178 0 2.915-.276 4.69-1.556a13.333 13.333 0 0 0 15.73-2.323 13.236 13.236 0 0 0 3.909-9.426c0-3.563-1.393-6.906-3.913-9.426zm-1.077 17.776A11.81 11.81 0 0 1 7.344 23.52a.758.758 0 0 0-.924.118.25.25 0 0 0-.062.045c-1.528 1.184-3.028 1.432-4.02 1.432h-.006c1.145-.834 1.866-2.074 2.29-3.038a.779.779 0 0 0 .039-.491.791.791 0 0 0-.186-.428C.347 16.496.562 9.393 4.97 4.984c4.606-4.606 12.1-4.606 16.7 0 4.612 4.606 4.612 12.093.006 16.699z"/>
        <circle cx="13.333" cy="13.333" r="1.212"/>
        <circle cx="18.182" cy="13.333" r="1.212"/>
        <circle cx="8.485" cy="13.333" r="1.212"/>
    </g>
</svg>
