<?xml version="1.0" encoding="UTF-8"?>
<svg width="28px" height="28px" viewBox="0 0 28 28" version="1.1" xmlns="http://www.w3.org/2000/svg" xmlns:xlink="http://www.w3.org/1999/xlink">
    <!-- Generator: Sketch 57.1 (83088) - https://sketch.com -->
    <title>chat copy 2</title>
    <desc>Created with Sketch.</desc>
    <g id="FAQ" stroke="none" stroke-width="1" fill="none" fill-rule="evenodd">
        <g id="chat-copy-2" transform="translate(0.666667, 0.666667)" fill="#8E8E8E" fill-rule="nonzero">
            <path d="M22.7537399,3.90697674 C20.2334542,1.38689218 16.8899879,0 13.326631,0 C9.76327402,0 6.41980776,1.38689218 3.89952207,3.90697674 C-0.97190263,8.77801268 -1.31019601,16.5750529 3.05942684,21.8350951 C2.63092189,22.6976744 1.94305868,23.701198 0.922540308,24.2029598 C0.432014905,24.4453841 0.155741976,24.969697 0.240315321,25.5109232 C0.324888667,26.0521494 0.742117171,26.4749824 1.28338658,26.559549 C1.53710662,26.5990134 1.89795289,26.6384778 2.33773429,26.6384778 C3.5161229,26.6384778 5.2526956,26.3622269 7.02873585,25.0824524 C9.00775213,26.1479915 11.1728298,26.6666667 13.3209928,26.6666667 C16.7715852,26.6666667 20.1883484,25.3305144 22.7593781,22.7596899 C25.2796638,20.2396054 26.6666667,16.8964059 26.6666667,13.3333333 C26.6666667,9.77026075 25.2740256,6.42706131 22.7537399,3.90697674 Z M21.6768393,21.6828753 C17.8710387,25.4883721 11.9790957,26.2438337 7.34447634,23.5207893 C7.0400123,23.3403805 6.66225135,23.3967583 6.41980776,23.6391825 C6.39725487,23.6504581 6.37470198,23.6673714 6.35778731,23.6842847 C4.82982887,24.8682171 3.33006154,25.1162791 2.33773429,25.1162791 L2.33209607,25.1162791 C3.47665534,24.2818887 4.19834789,23.0415786 4.62121462,22.0775194 C4.68887329,21.914024 4.70014974,21.7448908 4.66068218,21.5870331 C4.64376751,21.4348132 4.58174706,21.2825934 4.47462082,21.1585624 C0.347441559,16.496124 0.561694034,9.39252995 4.97078444,4.9837914 C9.57721266,0.377730796 17.0704111,0.377730796 21.6712011,4.9837914 C26.2832675,9.58985201 26.2832675,17.0768147 21.6768393,21.6828753 Z" id="Shape"></path>
            <circle id="Oval" cx="13.3333333" cy="13.3333333" r="1.21212121"></circle>
            <circle id="Oval" cx="18.1818182" cy="13.3333333" r="1.21212121"></circle>
            <circle id="Oval" cx="8.48484848" cy="13.3333333" r="1.21212121"></circle>
        </g>
    </g>
</svg>