<svg xmlns="http://www.w3.org/2000/svg" width="18" height="18" viewBox="0 0 18 18">
    <g fill="none" fill-rule="evenodd" transform="translate(1 1)">
        <circle cx="8" cy="8" r="8" fill="#FFF" stroke="#CECECE"/>
        <path fill="#B6B6B6" fill-rule="nonzero" d="M11.854 4.146a.495.495 0 0 0-.703 0L8 7.296l-3.15-3.15a.495.495 0 0 0-.704 0 .495.495 0 0 0 0 .703L7.297 8l-3.15 3.15a.5.5 0 1 0 .35.85.485.485 0 0 0 .349-.146l3.15-3.15 3.151 3.15a.5.5 0 0 0 .35.147.479.479 0 0 0 .35-.147.495.495 0 0 0 0-.703L8.702 8l3.15-3.15a.495.495 0 0 0 0-.704z"/>
    </g>
</svg>
