<svg xmlns="http://www.w3.org/2000/svg" width="15" height="18" viewBox="0 0 15 18">
    <g fill="none" fill-rule="nonzero">
        <path fill="#EC703A" d="M7.009 1.335a.333.333 0 0 0-.034.666.333.333 0 1 0 .034-.666z"/>
        <path fill="#6D6D6D" d="M13.684 2.034c-.92 0-1.669-.76-1.669-1.695A.336.336 0 0 0 11.681 0H2.336a.336.336 0 0 0-.334.339c0 .934-.748 1.695-1.668 1.695A.336.336 0 0 0 0 2.373v5.531c0 4.311 2.767 8.174 6.913 9.437a.33.33 0 0 0 .192 0c4.056-1.236 6.912-5.032 6.912-9.437V2.373a.336.336 0 0 0-.333-.34zm-.334 5.87c0 4.05-2.544 7.556-6.341 8.758C3.242 15.469.667 11.93.667 7.904V2.688a2.36 2.36 0 0 0 1.98-2.01h8.724a2.36 2.36 0 0 0 1.979 2.01v5.216z"/>
        <path fill="#6D6D6D" d="M12.483 3.128A3.042 3.042 0 0 1 10.93 1.54a.334.334 0 0 0-.306-.205H8.343a.338.338 0 0 0-.334.342c0 .188.15.341.334.341h2.07c.354.707.912 1.278 1.602 1.639v4.277c0 3.342-1.96 6.227-5.006 7.381-3.046-1.154-5.007-4.039-5.007-7.381V3.657a3.713 3.713 0 0 0 1.602-1.639h2.07a.338.338 0 0 0 .334-.341.338.338 0 0 0-.334-.342H3.393a.334.334 0 0 0-.306.205 3.042 3.042 0 0 1-1.552 1.588.342.342 0 0 0-.2.313v4.493c0 3.662 2.213 6.853 5.562 8.066a.327.327 0 0 0 .223 0c3.347-1.212 5.562-4.401 5.562-8.066V3.44a.342.342 0 0 0-.2-.313z"/>
        <path fill="#6D6D6D" d="M7.009 4.672a3.007 3.007 0 0 0-3.004 3.004 3.007 3.007 0 0 0 3.004 3.004 3.007 3.007 0 0 0 3.003-3.004A3.007 3.007 0 0 0 7.01 4.672z"/>
        <path fill="#EC703A" d="M7.009 10.012a2.339 2.339 0 0 1-2.337-2.336A2.339 2.339 0 0 1 7.01 5.34a2.339 2.339 0 0 1 2.336 2.336 2.339 2.339 0 0 1-2.336 2.336z"/>
        <path fill="#FFF" d="M8.569 6.536a.452.452 0 0 0-.525 0L6.453 7.764l-.48-.37a.452.452 0 0 0-.524 0c-.145.112-.145.293 0 .405l.741.572a.432.432 0 0 0 .263.084c.094 0 .19-.028.262-.084l1.854-1.43c.145-.112.145-.293 0-.405z"/>
    </g>
</svg>
