<svg xmlns="http://www.w3.org/2000/svg" width="36" height="36" viewBox="0 0 36 36">
    <g fill="none" fill-rule="nonzero" stroke="#FFF" stroke-width=".4">
        <path fill="#6D6D6D" d="M35 29.523v-4.046l-1.55-.396c-.01-.027-.021-.053-.033-.079l.816-1.375-2.86-2.86-1.376.815-.078-.033L29.523 20h-4.046l-.396 1.55c-.027.01-.053.021-.079.033l-1.375-.816-2.86 2.86.815 1.376-.033.078-1.549.396v4.046l1.55.396c.01.027.021.053.033.079l-.816 1.375 2.86 2.86 1.376-.815.078.033.396 1.549h4.046l.396-1.55c.027-.01.053-.021.079-.033l1.375.816 2.86-2.86-.815-1.376.033-.078L35 29.523zm-2.112 1.68l-1.685 1.685-1.144-.68-.258.124a5.36 5.36 0 0 1-.51.211l-.27.096-.33 1.29H26.31l-.329-1.29-.27-.096a5.05 5.05 0 0 1-.51-.211l-.258-.124-1.145.68-1.684-1.685.68-1.144-.124-.258a5.36 5.36 0 0 1-.212-.51l-.095-.27-1.29-.33V26.31l1.289-.329.096-.27a5.05 5.05 0 0 1 .211-.51l.124-.258-.68-1.145 1.685-1.684 1.144.68.258-.124a5.36 5.36 0 0 1 .51-.212l.27-.095.33-1.29h2.382l.329 1.289.27.096c.174.061.345.132.51.211l.258.124 1.145-.68 1.684 1.685-.68 1.144.124.258c.079.166.15.336.212.51l.095.27 1.29.33v2.382l-1.289.329-.096.27a5.05 5.05 0 0 1-.211.51l-.124.258.68 1.145z"/>
        <path fill="#6D6D6D" d="M27.5 23a4.505 4.505 0 0 0-4.5 4.5c0 2.481 2.019 4.5 4.5 4.5s4.5-2.019 4.5-4.5-2.019-4.5-4.5-4.5z"/>
        <path fill="#EC703A" d="M27.5 30.875a3.378 3.378 0 0 1-3.375-3.375 3.378 3.378 0 0 1 3.375-3.375 3.378 3.378 0 0 1 3.375 3.375 3.378 3.378 0 0 1-3.375 3.375z"/>
        <path fill="#6D6D6D" d="M14.426 9.995c.182.522.497.982.907 1.343v.45l-2.575.948A2.67 2.67 0 0 0 11 15.223V18h13v-2.777c0-1.102-.706-2.101-1.757-2.488l-2.576-.947v-.45c.41-.36.725-.82.907-1.343 1.02-.172 1.801-1.04 1.801-2.089V5.781C22.375 3.145 20.188 1 17.5 1s-4.875 2.145-4.875 4.781v2.125c0 1.049.78 1.917 1.801 2.09zm4.157 2.014L17.5 13.78l-1.083-1.77v-.039c.34.119.703.186 1.083.186s.744-.068 1.083-.186v.04zm-2.94.8l1.092 1.785-1.085.531-.701-2.06.694-.256zm7.274 2.414v1.714H12.083v-1.714c0-.661.424-1.26 1.055-1.493l.796-.292 1.083 3.186 2.483-1.217 2.483 1.217 1.083-3.186.797.293c.63.231 1.054.83 1.054 1.492zm-2.866-2.159l-.7 2.062-1.086-.532 1.092-1.785.694.255zm.699-4.243v-1.83c.322.185.542.524.542.916 0 .391-.22.73-.542.914zM17.5 2.063c2.09 0 3.792 1.668 3.792 3.718v.296a2.175 2.175 0 0 0-1.084-.296h-.093a3.166 3.166 0 0 1-2.232-.907l-.383-.376-.383.376a3.167 3.167 0 0 1-2.232.907h-.093c-.397 0-.764.113-1.084.296V5.78c0-2.05 1.702-3.718 3.792-3.718zM14.25 6.99v1.83a1.056 1.056 0 0 1-.542-.915c0-.392.22-.73.542-.915z"/>
        <path fill="#EC703A" d="M17.5 11.094c-1.195 0-2.167-.953-2.167-2.125V6.808A4.24 4.24 0 0 0 17.5 5.96a4.235 4.235 0 0 0 2.167.848v2.16c0 1.173-.972 2.126-2.167 2.126z"/>
        <path fill="#6D6D6D" d="M1 35h11V21H1v14zm1.1-12.923h8.8v11.846H2.1V22.077z"/>
        <path fill="#6D6D6D" d="M3 23h7v1H3zM3 25h1v1H3zM6 25h4v1H6zM3 27h7v1H3zM3 29h7v1H3zM9 32h1v1H9zM3 32h4v1H3zM15.218 25.751L14.474 25 12 27.5l2.474 2.5.744-.751-1.206-1.218H18V26.97h-3.988zM7.051 9.529c0-.29.236-.526.526-.526h2.41l-1.205 1.206.744.744L12 8.477 9.526 6l-.744.744 1.206 1.207H7.577A1.58 1.58 0 0 0 6 9.529V19h1.051V9.529zM27.075 9.7v7.131l-1.175-1.3-.725.802L27.588 19 30 16.333l-.725-.801L28.1 16.83V9.7c0-.937-.69-1.7-1.537-1.7H24v1.133h2.563c.282 0 .512.255.512.567z"/>
    </g>
</svg>
