<svg xmlns="http://www.w3.org/2000/svg" width="43" height="37" viewBox="0 0 43 37">
    <g fill="none" fill-rule="nonzero">
        <path fill="#EC703A" d="M30.722 1.95c-2.16-2.09-5.862-2.568-9.21.872-3.344-3.436-7.05-2.963-9.21-.873-2.516 2.433-2.56 6.504-.134 8.997l9.344 9.602 9.344-9.6c2.426-2.493 2.382-6.564-.134-8.998z"/>
        <path fill="#636363" d="M39.932 2.333a2.808 2.808 0 0 0-2.815 2.517L36.07 15.09a2.667 2.667 0 0 0-1.328.705L26.377 23.5a5.538 5.538 0 0 0-1.83 4.063v9.176h9.936V32.42c0-.666.283-1.315.796-1.797l6.284-6.275a4.053 4.053 0 0 0 1.199-2.883V5.134c0-1.544-1.27-2.8-2.83-2.8zm1.174 19.131c0 .652-.255 1.266-.72 1.732l-6.264 6.255a4.082 4.082 0 0 0-1.295 2.968v2.68h-6.624v-7.527a3.896 3.896 0 0 1 1.297-2.864l8.39-7.731c.225-.223.533-.333.86-.3a1.056 1.056 0 0 1 .979 1.053c0 .284-.115.552-.289.726l-6.46 5.796 1.113 1.213 6.49-5.824c.516-.512.801-1.19.801-1.912 0-.723-.283-1.401-.8-1.91a2.644 2.644 0 0 0-.866-.579l1.045-10.223a1.168 1.168 0 0 1 1.17-1.045c.647 0 1.173.52 1.173 1.161v16.331zM16.646 23.499l-8.363-7.704c-.36-.355-.823-.6-1.328-.704L5.907 4.85a2.808 2.808 0 0 0-2.815-2.517c-1.56 0-2.83 1.257-2.83 2.8v16.331c0 1.086.425 2.11 1.199 2.882l6.284 6.275c.513.481.796 1.132.796 1.798v4.32h9.935v-9.177a5.534 5.534 0 0 0-1.83-4.063zm.174 11.6h-6.623v-2.68a4.085 4.085 0 0 0-1.295-2.968l-6.264-6.255a2.433 2.433 0 0 1-.72-1.732V5.134c0-.641.526-1.162 1.174-1.162.604 0 1.108.449 1.169 1.042l1.045 10.223a2.696 2.696 0 0 0-.866.578 2.67 2.67 0 0 0-.8 1.91c0 .723.285 1.401.801 1.912l6.49 5.825 1.112-1.213-6.46-5.796a1.032 1.032 0 0 1-.287-.726 1.053 1.053 0 0 1 .978-1.053 1.06 1.06 0 0 1 .86.3l8.39 7.73a3.896 3.896 0 0 1 1.296 2.864V35.1z"/>
    </g>
</svg>
