<svg xmlns="http://www.w3.org/2000/svg" width="64" height="64" viewBox="0 0 64 64">
    <g fill="none" fill-rule="nonzero" stroke="#FFF" stroke-width=".7">
        <path fill="#636363" d="M32.5 20c5.238 0 9.5-4.262 9.5-9.5S37.738 1 32.5 1 23 5.262 23 10.5s4.262 9.5 9.5 9.5zm0-17.074c4.177 0 7.574 3.397 7.574 7.574 0 4.176-3.397 7.574-7.574 7.574s-7.574-3.398-7.574-7.574c0-4.177 3.397-7.574 7.574-7.574zM32 24.992c7.941 0 14.462 6.2 14.976 14.016H23.962a.996.996 0 0 0 0 1.992h24.042c.55 0 .996-.446.996-.996C49 30.628 41.374 23 32 23c-9.374 0-17 7.628-17 17.004 0 .55.446.996.996.996h3.983a.996.996 0 0 0 0-1.992h-2.955C17.538 31.193 24.06 24.992 32 24.992z"/>
        <path fill="#EC703A" d="M62.952 51.183a.986.986 0 0 0-.763-.688l-5.33-.936-2.497-5.012A.967.967 0 0 0 53.5 44a.967.967 0 0 0-.862.547l-2.497 5.012-5.33.936a.986.986 0 0 0-.763.688 1.05 1.05 0 0 0 .23 1.026l3.786 4.034-.796 5.59c-.053.376.097.75.39.973a.936.936 0 0 0 1.004.087l4.838-2.52 4.838 2.52a.937.937 0 0 0 1.004-.087c.293-.223.443-.597.39-.972l-.797-5.591 3.786-4.034c.254-.27.343-.666.231-1.026zM41.952 51.183a.986.986 0 0 0-.763-.688l-5.33-.936-2.497-5.012A.967.967 0 0 0 32.5 44a.967.967 0 0 0-.862.547l-2.497 5.012-5.33.936a.986.986 0 0 0-.763.688 1.05 1.05 0 0 0 .23 1.026l3.786 4.034-.796 5.59c-.053.376.097.75.39.973a.936.936 0 0 0 1.004.087l4.838-2.52 4.838 2.52a.937.937 0 0 0 1.004-.087c.293-.223.443-.597.39-.972l-.797-5.591 3.786-4.034c.254-.27.343-.666.231-1.026zM19.952 51.183a.986.986 0 0 0-.763-.688l-5.33-.936-2.497-5.012A.967.967 0 0 0 10.5 44a.967.967 0 0 0-.862.547l-2.497 5.012-5.33.936a.986.986 0 0 0-.763.688 1.05 1.05 0 0 0 .23 1.026l3.786 4.034-.796 5.59c-.053.376.097.75.39.973a.936.936 0 0 0 1.004.087l4.838-2.52 4.838 2.52a.937.937 0 0 0 1.004-.087c.293-.223.443-.597.39-.972l-.797-5.591 3.786-4.034c.254-.27.343-.666.231-1.026z"/>
        <path fill="#636363" d="M32.5 15c1.251 0 2.442-.53 3.266-1.456a.917.917 0 0 0-.094-1.315.97.97 0 0 0-1.347.092 2.444 2.444 0 0 1-1.825.815 2.444 2.444 0 0 1-1.825-.815.97.97 0 0 0-1.347-.092.917.917 0 0 0-.094 1.315A4.373 4.373 0 0 0 32.5 15z"/>
    </g>
</svg>
