<svg xmlns="http://www.w3.org/2000/svg" width="34" height="34" viewBox="0 0 34 34">
    <g fill="none" fill-rule="evenodd">
        <path fill="#EC703A" d="M4.083 27.5v-2.865H7.5L8.917 27.5v2.333L5 31z"/>
        <path fill="#6D6D6D" fill-rule="nonzero" d="M.072 3.086L2.319 7.02a.561.561 0 0 0 .35.266l2.097.524L11.956 15l.793-.794-7.301-7.303a.56.56 0 0 0-.261-.148l-2.014-.506L1.26 2.9 2.9 1.26l3.35 1.915.506 2.014a.56.56 0 0 0 .148.262l7.302 7.303.794-.795-7.19-7.19-.523-2.096a.563.563 0 0 0-.267-.352L3.088.073a.562.562 0 0 0-.674.09L.168 2.412a.562.562 0 0 0-.096.675zM24 10.785L11.785 23 11 22.215 23.215 10zM8.429 24.283A.49.49 0 0 0 8 24H5a.49.49 0 0 0-.428.283l-1.5 2.917a.668.668 0 0 0 0 .6l1.5 2.917A.49.49 0 0 0 5 31h3a.49.49 0 0 0 .429-.283l1.5-2.917a.668.668 0 0 0 0-.6l-1.5-2.917zm-.712 5.55H5.283l-1.2-2.333 1.2-2.333h2.434l1.2 2.333-1.2 2.333z"/>
        <path fill="#EC703A" d="M16.954 22l5.298-5.5c.744.333 1.327 1.333 1.748 3 .421 1.667.993 1.667 1.714 0l7.14 8L27 32.853l-6.38-7.37c.547-1.655.292-2.483-.764-2.483s-1.675.424-1.856 1.27L16.954 22z"/>
        <path fill="#6D6D6D" fill-rule="nonzero" d="M27.188 13.595a6.774 6.774 0 0 0 6.589-8.44.566.566 0 0 0-.95-.264l-3.526 3.524-2.797-.932-.933-2.797 3.526-3.527a.566.566 0 0 0-.266-.95 6.776 6.776 0 0 0-8.302 7.916L8.124 20.53a6.682 6.682 0 0 0-1.327-.137 6.797 6.797 0 1 0 6.797 6.797 6.665 6.665 0 0 0-.138-1.328l2.97-2.97 1.299 1.3c.221.22.58.22.801 0l.283-.284a.634.634 0 1 1 .9.897l-.001.002-.284.283a.566.566 0 0 0 0 .8l6.757 6.757a4.572 4.572 0 0 0 6.495-6.435l-.03-.03-6.756-6.756a.566.566 0 0 0-.801 0l-.283.283a.634.634 0 1 1-.9-.897l.001-.001.283-.284a.566.566 0 0 0 0-.8l-1.298-1.3 2.97-2.969c.436.09.88.136 1.326.138zm2.226 19.258c-.412 0-.82-.075-1.205-.22l4.424-4.424a3.435 3.435 0 0 1-3.22 4.644zm-6.417-14.721a1.768 1.768 0 0 0 2.492 2.488l6.357 6.362c.069.07.133.143.196.217l-4.843 4.842a3.298 3.298 0 0 1-.217-.196l-6.361-6.361a1.768 1.768 0 0 0-2.493-2.49l-.906-.905 4.869-4.861.906.904zm2.287-5.697l-12.85 12.846a.567.567 0 0 0-.149.539 5.702 5.702 0 1 1-11.052 2.813 5.702 5.702 0 0 1 6.933-6.932.571.571 0 0 0 .538-.15L21.551 8.705a.566.566 0 0 0 .149-.538 5.637 5.637 0 0 1 5.81-7.024l-2.988 2.99a.566.566 0 0 0-.137.578l1.133 3.399c.057.169.19.302.359.358L29.275 9.6a.566.566 0 0 0 .58-.137l2.987-2.988a5.636 5.636 0 0 1-7.023 5.81.567.567 0 0 0-.538.149h.003z"/>
        <path fill="#6D6D6D" fill-rule="nonzero" d="M30 27.257l-.743.743L24 22.743l.743-.743z"/>
    </g>
</svg>
