<svg xmlns="http://www.w3.org/2000/svg" width="15" height="17" viewBox="0 0 15 17">
    <g fill="none" fill-rule="nonzero">
        <path fill="#6D6D6D" d="M11.3 11.507l-1.473-.502-.529-1.08c.477-.495.807-1.15.919-1.833l.066-.403h.564a.94.94 0 0 0 .93-.95V4.746C11.777 2.13 9.69 0 7.128 0c-2.57 0-4.649 2.123-4.649 4.746V6.74c0 .413.26.765.62.895v.371c0 .523.417.95.93.95H4.3a3.442 3.442 0 0 0 .656.971l-.528 1.08-1.473.5C1.243 12.09 0 13.93 0 15.885c0 .174.139.316.31.316h13.636c.171 0 .31-.142.31-.316 0-1.954-1.243-3.794-2.956-4.377zm-.143-4.768a.314.314 0 0 1-.31.317h-.473c.079-.623.131-1.286.152-1.94l.002-.054h.629V6.74zm-7.748.317a.314.314 0 0 1-.31-.317V5.062h.63c0 .034.001.067.003.1v.003c.021.636.073 1.282.15 1.89H3.41zm.62 1.265a.314.314 0 0 1-.31-.316V7.69h.254l.066.403c.013.077.028.154.046.23h-.056zM6.85 1.898h.554c1.39 0 2.513 1.16 2.512 2.576 0 .1 0 .187-.002.265v.004l-.388-.057a4.943 4.943 0 0 1-2.8-1.43.307.307 0 0 0-.219-.092c-.832 0-1.629.387-2.156 1.041.13-1.288 1.197-2.307 2.499-2.307zm-.369 8.892a3.074 3.074 0 0 0 1.153.026l-.548.592-.605-.618zm.18 1.078l-.984 1.061a12.19 12.19 0 0 1-.694-1.643l.37-.753 1.307 1.335zm2.188-1.443l.422.861a12.187 12.187 0 0 1-.694 1.643l-1.052-1.074 1.324-1.43zM6.198 8.638c0-.175.139-.317.31-.317h.62c.17 0 .31.142.31.317a.313.313 0 0 1-.31.316h-.62a.314.314 0 0 1-.31-.316zm-1.742 3.025c.24.675.536 1.33.883 1.954v.001l.001.002c.254.455.54.9.849 1.322l.38.625H.633c.123-1.567 1.145-2.992 2.52-3.46l1.304-.444zM7.128.633c2.117 0 3.858 1.676 4.017 3.797h-.608c-.023-1.748-1.417-3.164-3.132-3.164h-.554c-1.715 0-3.11 1.416-3.132 3.164h-.608C3.268 2.31 5 .633 7.128.633zm.558 14.934l.381-.625c.311-.424.599-.872.855-1.333l.004-.008V13.6a12.8 12.8 0 0 0 .874-1.937l1.304.444c1.375.468 2.397 1.893 2.52 3.46H7.686z"/>
        <path fill="#EC703A" d="M7.127 15.552l-.48-.752a13.144 13.144 0 0 1-.815-1.187l1.262-1.301 1.33 1.297c-.245.402-.513.794-.8 1.167-.018.022.007-.013-.497.776zM4.884 8.447c-.145-.531-.311-2.095-.348-3.096l.39-.573c.359-.526.916-.853 1.51-.89.78.817 1.79 1.357 2.857 1.525l.427.067a21.557 21.557 0 0 1-.17 1.95c-.027.199-.048.326-.101.681-.154 1.014-.841 1.93-1.749 2.18a2.15 2.15 0 0 1-1.14 0c-.566-.156-1.086-.587-1.421-1.205h.591c.12.371.442.638.82.638h.58c.48 0 .87-.429.87-.957s-.39-.958-.87-.958h-.58c-.386 0-.704.275-.82.638h-.846z"/>
    </g>
</svg>
