<svg xmlns="http://www.w3.org/2000/svg" width="41" height="41" viewBox="0 0 41 41">
    <g fill="none" fill-rule="nonzero">
        <path fill="#636363" stroke="#FFF" stroke-width=".5" d="M11.88 34.28h1.28v1.28h-1.28zM11.88 36.84h1.28v1.28h-1.28zM8.68 16.36c4.235 0 7.68-3.445 7.68-7.68C16.36 4.445 12.915 1 8.68 1 4.445 1 1 4.445 1 8.68c0 4.235 3.445 7.68 7.68 7.68zm1.812-10.88c.349.778.624 1.645.715 2.56H6.153c.09-.915.366-1.782.715-2.56h3.624zM7.542 4.2c.414-.68.833-1.23 1.138-1.597.305.367.724.917 1.138 1.597H7.542zm7.505 3.84H12.49a9.21 9.21 0 0 0-.608-2.56h2.333a6.34 6.34 0 0 1 .833 2.56zm-8.18 3.84c-.348-.778-.623-1.645-.714-2.56h5.054c-.091.915-.367 1.782-.715 2.56H6.868zm2.95 1.28c-.413.68-.832 1.23-1.137 1.597a13.516 13.516 0 0 1-1.138-1.597h2.276zm2.672-3.84h2.558a6.349 6.349 0 0 1-.833 2.56h-2.333a9.21 9.21 0 0 0 .608-2.56zM4.87 8.04H2.313a6.349 6.349 0 0 1 .833-2.56h2.333a9.21 9.21 0 0 0-.608 2.56zm0 1.28a9.21 9.21 0 0 0 .608 2.56H3.146a6.34 6.34 0 0 1-.833-2.56H4.87zm-.754 3.84h1.948c.357.672.741 1.257 1.088 1.728a6.389 6.389 0 0 1-3.036-1.728zm6.09 1.728c.348-.471.732-1.056 1.088-1.728h1.948a6.389 6.389 0 0 1-3.036 1.728zM13.243 4.2h-1.948a14.084 14.084 0 0 0-1.088-1.728A6.389 6.389 0 0 1 13.243 4.2zm-6.09-1.728A13.931 13.931 0 0 0 6.065 4.2H4.117a6.389 6.389 0 0 1 3.036-1.728zM29.8 18.92c-1.059 0-1.92.861-1.92 1.92s.861 1.92 1.92 1.92 1.92-.861 1.92-1.92-.861-1.92-1.92-1.92zm0 2.56a.641.641 0 0 1 0-1.28.641.641 0 0 1 0 1.28zM27.88 25.32h1.28v3.84h-1.28v1.28h3.84v-1.28h-1.28v-3.84h1.28v-1.28h-3.84z"/>
        <path fill="#636363" stroke="#FFF" stroke-width=".5" d="M37.48 16.36H22.12a3.204 3.204 0 0 0-3.2 3.2v.028a11.452 11.452 0 0 0-6.4-1.948C6.168 17.64 1 22.808 1 29.16c0 6.352 5.168 11.52 11.52 11.52 5.004 0 9.261-3.213 10.848-7.68h2.592v1.95a1.893 1.893 0 0 0 3.464 1.048L31.422 33h6.058c1.764 0 3.2-1.436 3.2-3.2V19.56c0-1.764-1.436-3.2-3.2-3.2zM12.52 39.4c-3.263 0-6.168-1.54-8.044-3.925a8.963 8.963 0 0 1 2.914-3.411c.595.972 1.542 1.576 2.57 1.576 1.047 0 1.976-.61 2.56-1.546.584.936 1.513 1.546 2.56 1.546 1.028 0 1.975-.604 2.57-1.576a8.952 8.952 0 0 1 2.914 3.41c-1.876 2.386-4.78 3.926-8.044 3.926zm-4.035-7.992a8.927 8.927 0 0 1 3.32-.937c-.223 1.085-.961 1.889-1.845 1.889-.572 0-1.113-.363-1.475-.952zm4.75-.938a8.927 8.927 0 0 1 3.32.938c-.362.59-.903.952-1.475.952-.884 0-1.622-.804-1.844-1.89zm8.14 3.808a10.247 10.247 0 0 0-6.002-4.709 5.118 5.118 0 0 0 2.267-4.249 5.126 5.126 0 0 0-5.12-5.12 5.126 5.126 0 0 0-5.12 5.12c0 1.768.9 3.329 2.267 4.249-2.51.73-4.67 2.407-6.003 4.71A10.165 10.165 0 0 1 2.28 29.16c0-5.646 4.594-10.24 10.24-10.24s10.24 4.594 10.24 10.24c0 1.865-.51 3.61-1.384 5.118zM39.4 29.8c0 1.059-.861 1.92-1.92 1.92h-6.742l-2.38 3.568a.61.61 0 0 1-1.118-.339V31.72h-3.497c.188-.825.297-1.68.297-2.56 0-3.4-1.49-6.452-3.84-8.562V19.56c0-1.059.861-1.92 1.92-1.92h15.36c1.059 0 1.92.861 1.92 1.92V29.8z"/>
        <path fill="#EC703A" d="M8.68 25.32a3.844 3.844 0 0 1 3.84-3.84 3.844 3.844 0 0 1 3.84 3.84 3.844 3.844 0 0 1-3.84 3.84 3.844 3.844 0 0 1-3.84-3.84z"/>
        <path fill="#636363" stroke="#FFF" stroke-width=".5" d="M29.548 14.283a1.871 1.871 0 0 0 3.064 0l3.233-4.62c.65-.93.995-2.022.995-3.157A5.512 5.512 0 0 0 31.334 1h-.508a5.512 5.512 0 0 0-5.506 5.506 5.48 5.48 0 0 0 .995 3.157l3.233 4.62zM30.826 2.28h.508a4.23 4.23 0 0 1 4.226 4.227c0 .87-.264 1.709-.764 2.423l-3.233 4.62c-.22.313-.745.313-.966 0l-3.233-4.62a4.21 4.21 0 0 1-.764-2.424 4.23 4.23 0 0 1 4.226-4.226z"/>
        <path fill="#636363" stroke="#FFF" stroke-width=".5" d="M31.08 9.96c1.764 0 3.2-1.436 3.2-3.2 0-1.764-1.436-3.2-3.2-3.2a3.204 3.204 0 0 0-3.2 3.2c0 1.764 1.436 3.2 3.2 3.2z"/>
        <path fill="#EC703A" stroke="#FFF" stroke-width=".5" d="M31.08 4.84c1.059 0 1.92.861 1.92 1.92s-.861 1.92-1.92 1.92a1.922 1.922 0 0 1-1.92-1.92c0-1.059.861-1.92 1.92-1.92z"/>
    </g>
</svg>
