<svg xmlns="http://www.w3.org/2000/svg" width="18" height="24" viewBox="0 0 18 24">
    <g fill="#317FFF" fill-rule="nonzero">
        <path d="M10.087 7.425a1.494 1.494 0 0 0-.523-.303 2.886 2.886 0 0 0-.676-.07H7.885a.55.55 0 0 0-.37.116c-.066.07-.11.21-.11.398v3.015c0 .14 0 .234.044.328.022.093.066.14.131.187.065.046.174.07.327.07H8.91c.174 0 .327-.024.48-.047.13-.023.26-.07.392-.117.13-.07.24-.14.327-.234.13-.14.24-.28.327-.444.087-.163.152-.35.196-.56.043-.211.065-.422.065-.679 0-.724-.196-1.286-.61-1.66zm-.567 2.9a.868.868 0 0 1-.196.116c-.087.023-.153.047-.218.047H8.212V7.683h.523c.24 0 .436.023.61.093.175.047.306.187.415.398.109.21.174.514.174.911-.022.608-.152 1.005-.414 1.24z"/>
        <path d="M17.234 4.599l-.024-.024v-.023L12.803.117 12.78.093s-.023 0-.023-.023c0 0-.023 0-.023-.023C12.664 0 12.594 0 12.502 0H1.577C1.16 0 .765.163.487.444L.464.467C.186.747 0 1.167 0 1.587v19.866c0 .443.186.84.464 1.12.278.28.696.467 1.113.467h14.126c.44 0 .835-.187 1.113-.467s.464-.7.464-1.12V4.833c0-.094-.023-.164-.046-.234zM12.943 1.68l2.62 2.638h-1.925a.63.63 0 0 1-.487-.21.73.73 0 0 1-.208-.49V1.68zm3.34 19.772c0 .163-.07.303-.186.42a.58.58 0 0 1-.417.187H1.577a.664.664 0 0 1-.417-.164.565.565 0 0 1-.163-.42V1.564c0-.163.07-.303.186-.42l.023-.024A.656.656 0 0 1 1.6.957h10.392v2.638c0 .467.185.887.51 1.214.301.303.742.49 1.206.49h2.575v16.154z"/>
        <path d="M6.168 7.35a.96.96 0 0 0-.463-.23c-.17-.046-.439-.069-.756-.069H3.828c-.195 0-.342.046-.415.115-.097.07-.122.207-.122.391v3.126c0 .16.05.276.122.368.073.092.195.115.317.115a.44.44 0 0 0 .317-.138.563.563 0 0 0 .122-.368V9.51h.805c.536 0 .926-.114 1.194-.321.269-.207.415-.529.415-.942a1.28 1.28 0 0 0-.098-.529c-.097-.138-.195-.276-.317-.368zm-.585 1.287a.62.62 0 0 1-.317.207 1.712 1.712 0 0 1-.512.07H4.17V7.671h.585c.39 0 .634.069.78.184.122.115.171.253.171.437-.024.138-.049.252-.122.344zM11.962 7.051a.611.611 0 0 0-.261.092.262.262 0 0 0-.14.16c-.041.068-.041.16-.041.297v3.086c0 .16.04.297.1.365.06.092.16.115.261.115.1 0 .18-.046.261-.115.06-.091.1-.205.1-.365V9.36h1.185c.1 0 .18-.023.24-.091.06-.046.08-.138.08-.229s-.02-.16-.08-.229a.397.397 0 0 0-.24-.091h-1.184V7.691h1.404c.12 0 .201-.022.261-.091a.316.316 0 0 0 .08-.229c0-.091-.02-.16-.08-.228-.06-.069-.14-.092-.26-.092h-1.686z"/>
        <path stroke="#317FFF" stroke-width=".3" d="M11.8 16.035c-.112 0-.201.107-.201.24v2.175c0 .592-.404 1.072-.899 1.072H6.3c-.496 0-.899-.482-.899-1.072v-2.21c0-.134-.089-.24-.2-.24-.112 0-.201.106-.201.24v2.21c0 .856.584 1.55 1.3 1.55h4.4c.718 0 1.3-.696 1.3-1.55v-2.175c0-.132-.09-.24-.2-.24z"/>
        <path stroke="#317FFF" stroke-width=".3" d="M8.357 18.928a.19.19 0 0 0 .144.072.185.185 0 0 0 .143-.072l1.296-1.544a.276.276 0 0 0 0-.343.181.181 0 0 0-.288 0l-.947 1.13v-4.928c0-.135-.091-.243-.204-.243-.114 0-.204.108-.204.243v4.928l-.949-1.13a.181.181 0 0 0-.288 0 .276.276 0 0 0 0 .343l1.297 1.544z"/>
    </g>
</svg>
