<svg xmlns="http://www.w3.org/2000/svg" width="65" height="64" viewBox="0 0 65 64">
    <g fill="none" fill-rule="nonzero">
        <path fill="#636363" stroke="#FFF" stroke-width=".5" d="M14 49c4.434 0 8-3.566 8-8s-3.566-8-8-8a7.98 7.98 0 0 0-8 8c0 4.434 3.566 8 8 8zm0-14.072A6.047 6.047 0 0 1 20.072 41 6.047 6.047 0 0 1 14 47.072 6.047 6.047 0 0 1 7.928 41 6.047 6.047 0 0 1 14 34.928zM18.078 49H9.923C5.03 49 1 53.14 1 58.169v3.845c0 .592.384.986.96.986h24.08c.576 0 .96-.394.96-.986V58.17C27 53.042 23.066 49 18.078 49zm7.003 12.028H2.92V58.17c0-3.944 3.166-7.197 7.004-7.197h8.155c3.837 0 7.003 3.253 7.003 7.197v2.86zM43 41c0 4.434 3.566 8 8 8s8-3.566 8-8-3.566-8-8-8c-4.337 0-8 3.566-8 8zm8-6.072A6.047 6.047 0 0 1 57.072 41 6.047 6.047 0 0 1 51 47.072 6.047 6.047 0 0 1 44.928 41c0-3.374 2.795-6.072 6.072-6.072zM55.078 49h-8.155C42.03 49 38 53.14 38 58.169v3.845c0 .592.384.986.96.986h24.08c.576 0 .96-.394.96-.986V58.17C64 53.141 59.97 49 55.078 49zm7.003 12.028H39.92V58.17c0-3.944 3.166-7.197 7.004-7.197h8.155c3.837 0 7.003 3.253 7.003 7.197v2.86z"/>
        <path fill="#EC703A" d="M46.452 31.825l.189.097c.377.194.848 0 1.037-.29.282-.29.282-.774.094-1.16-1.697-2.71-2.734-4.74-3.206-6.482 7.354-5.997 5.28-16.638-4.148-20.12C37.873 1.45 34.196 0 30.142 0 22.317 0 16 5.514 16 12.188c0 3.386 1.603 6.578 4.431 8.9-.471 1.741-1.508 3.773-3.205 6.481-.189.387-.189.774.094 1.16.283.291.66.485 1.037.291 3.3-1.354 5.845-2.708 7.825-4.256 3.205 2.128 7.448 3.095 11.785 2.225 1.791 2.128 5.185 3.482 8.485 4.836zM25.994 22.25c-1.415 1.257-3.3 2.515-5.751 3.676 1.13-1.838 1.79-3.483 2.168-5.03a.93.93 0 0 0-.377-.968c-2.64-1.935-4.148-4.74-4.148-7.739 0-5.707 5.468-10.253 12.256-10.253s12.256 4.643 12.256 10.253c0 5.611-5.468 10.254-12.256 10.254-1.037 0-2.169-.096-3.3-.387-.283-.096-.566 0-.848.194zm3.676 2.225h.472c10.088 0 16.876-8.9 13.104-16.832 5.28 4.16 5.092 11.221-.282 15.187a.93.93 0 0 0-.378.967c.283 1.451 1.038 3.193 2.075 5.224-2.357-1.064-4.62-2.225-5.657-3.58-.189-.29-.566-.483-.943-.386a14.454 14.454 0 0 1-8.39-.58z"/>
        <path fill="#EC703A" d="M25.994 22.249c-1.415 1.257-3.3 2.515-5.751 3.676 1.13-1.838 1.79-3.483 2.168-5.03a.93.93 0 0 0-.377-.968c-2.64-1.935-4.148-4.74-4.148-7.739 0-5.707 5.468-10.253 12.256-10.253s12.256 4.643 12.256 10.253c0 5.611-5.468 10.254-12.256 10.254-1.037 0-2.169-.096-3.3-.387-.283-.096-.566 0-.848.194z"/>
        <path fill="#FFF" d="M24.935 9h11.13c.561 0 .935-.4.935-1s-.374-1-.935-1h-11.13C24.374 7 24 7.4 24 8s.468 1 .935 1zM24.935 13h11.13c.561 0 .935-.4.935-1s-.374-1-.935-1h-11.13c-.561 0-.935.4-.935 1s.468 1 .935 1zM37 17c0-.6-.371-1-.929-1H24.93c-.558 0-.929.4-.929 1s.371 1 .929 1h11.05c.557 0 1.021-.4 1.021-1z"/>
    </g>
</svg>
