<svg xmlns="http://www.w3.org/2000/svg" width="36" height="38" viewBox="0 0 36 38">
    <g fill="none" fill-rule="nonzero">
        <path fill="#6D6D6D" d="M34.322 30.434V18.783c0-4.134-3.443-7.497-7.675-7.497-4.232 0-7.675 3.363-7.675 7.497v11.651a4.874 4.874 0 0 0-.982 1.152 4.999 4.999 0 0 0-4.252-2.35H11.47v-1.54c1.854-.78 3.171-2.55 3.252-4.623h.084c1.224 0 2.22-.974 2.22-2.17 0-.58-.231-1.125-.65-1.532a2.216 2.216 0 0 0-.638-.437v-.108c0-3.44-2.865-6.238-6.386-6.238a6.498 6.498 0 0 0-3.21.845c-1.96 1.114-3.176 3.18-3.176 5.393v.11a2.2 2.2 0 0 0-.638.433c-.42.41-.651.954-.651 1.535 0 1.196.996 2.169 2.22 2.169h.084a5.158 5.158 0 0 0 1.57 3.511A5.38 5.38 0 0 0 7.233 27.7v1.537H4.968C2.228 29.236 0 31.413 0 34.09v3.222c0 .38.316.689.706.689H18c.056 0 .11-.007.163-.02h17.131c.39 0 .706-.308.706-.688V34.07a4.766 4.766 0 0 0-1.678-3.636zM14.728 20.113h.079c.216 0 .419.082.572.232a.774.774 0 0 1 .237.559c0 .436-.363.79-.81.79h-.078v-1.581zM3.976 21.694h-.078a.801.801 0 0 1-.81-.79.8.8 0 0 1 .622-.77c.09 0 .178-.003.266-.007v1.567zm5.377-7.728c2.653 0 4.828 2.04 4.968 4.599-.125.02-.25.038-.374.051h-.004a6.279 6.279 0 0 1-5.34-2.01 6.03 6.03 0 0 1-1.279-2.218 5.075 5.075 0 0 1 2.029-.422zm-4.854 4.716l-.12.02a4.837 4.837 0 0 1 1.72-3.551 7.403 7.403 0 0 0 1.09 1.942 4.51 4.51 0 0 1-2.69 1.589zm2.05 6.927a3.803 3.803 0 0 1-1.161-2.738v-2.984a5.935 5.935 0 0 0 2.764-1.77 7.728 7.728 0 0 0 5.101 1.915h.064v2.838c0 2.136-1.778 3.873-3.964 3.873a3.989 3.989 0 0 1-2.804-1.134zm3.51 2.513v1.114H8.646v-1.114h1.415zm7.235 8.5H1.411v-2.533c0-1.916 1.596-3.474 3.557-3.474h8.77c1.952 0 3.548 1.55 3.556 3.458v2.549zm9.353-9.897a3.984 3.984 0 0 1-2.803-1.135 3.804 3.804 0 0 1-1.161-2.739v-3.183a8.623 8.623 0 0 0 1.504-.725 8.491 8.491 0 0 0 2.46-2.265 8.584 8.584 0 0 0 3.965 2.989v3.184c0 2.136-1.779 3.874-3.965 3.874zm.707 1.397v1.095H25.94v-1.095h1.414zm-6.161-5.05h.084a5.158 5.158 0 0 0 1.57 3.493c.49.48 1.061.855 1.682 1.115v1.537h-2.267c-.655 0-1.289.123-1.879.359v-6.653c.251.096.524.15.81.15zm-.81-2.168a.8.8 0 0 1 .671-.779l.009-.001a.756.756 0 0 1 .13-.011h.079v1.581h-.08a.8.8 0 0 1-.809-.79zm8.382 6.773c1.848-.777 3.164-2.538 3.252-4.604h.085c.281 0 .555-.052.81-.15v6.653a5.044 5.044 0 0 0-1.88-.36h-2.267v-1.539zm3.258-7.564h.079a.8.8 0 0 1 .81.79c0 .212-.085.41-.238.56a.813.813 0 0 1-.572.231h-.08v-1.581zm-11.64-1.33c0-3.374 2.81-6.119 6.264-6.119s6.264 2.745 6.264 6.119v.003a7.223 7.223 0 0 1-1.382-.268l-.005-.001a7.134 7.134 0 0 1-4.25-3.478.708.708 0 0 0-.627-.373.708.708 0 0 0-.627.373 7.055 7.055 0 0 1-2.58 2.734 7.174 7.174 0 0 1-1.647.737l-.997.226a7.134 7.134 0 0 1-.413.05v-.003zm14.206 17.82H18.706V34.07c0-1.038.46-1.998 1.27-2.66a.705.705 0 0 0 .247-.188c.599-.41 1.3-.627 2.04-.627h2.808c.053.012.107.02.164.02h2.825c.056 0 .11-.008.163-.02h2.81c.786 0 1.532.246 2.155.711.89.664 1.401 1.671 1.401 2.764v2.532z"/>
        <path fill="#EC703A" d="M19.503 0c-.706 0-1.386.153-2.003.448A4.631 4.631 0 0 0 15.497 0C13.017 0 11 1.925 11 4.29c0 3.338 3.653 5.314 5.213 6.158.19.103.425.23.502.28.227.182.506.272.785.272s.558-.09.785-.271c.077-.05.312-.178.502-.28C20.347 9.603 24 7.627 24 4.29 24 1.925 21.982 0 19.503 0zM30.687 34.857h-3.46c-.342 0-.618.352-.618.786 0 .434.276.786.618.786h3.46c.34 0 .617-.352.617-.786 0-.434-.276-.786-.617-.786zM33.652 34.857c-1.042 0-1.044 1.572 0 1.572 1.043 0 1.044-1.572 0-1.572z"/>
    </g>
</svg>
