<svg xmlns="http://www.w3.org/2000/svg" width="18" height="18" viewBox="0 0 18 18">
    <g fill="none" fill-rule="evenodd" transform="translate(1 1)">
        <circle cx="7.963" cy="7.963" r="7.963" stroke="#124093"/>
        <path fill="#124093" fill-rule="nonzero" d="M4.015 11.214a.42.42 0 0 0 .589-.11l1.6-2.336L7.898 10.4c.09.085.212.13.336.116a.43.43 0 0 0 .307-.178l2.81-4.024.101 1.346c.025.342.347.398.454.39a.423.423 0 0 0 .39-.454l-.178-2.367a.422.422 0 0 0-.454-.39l-2.37.179a.422.422 0 1 0 .064.843l1.348-.102L8.13 9.445 6.432 7.81a.42.42 0 0 0-.643.066l-1.884 2.75a.423.423 0 0 0 .11.589z"/>
    </g>
</svg>
