<svg xmlns="http://www.w3.org/2000/svg" width="27" height="27" viewBox="0 0 27 27">
    <g fill="none" fill-rule="evenodd" transform="translate(1 1)">
        <circle cx="12.442" cy="12.442" r="12.442" stroke="#124093"/>
        <path fill="#124093" fill-rule="nonzero" d="M6.273 17.522c.113.077.55.294.92-.172l2.501-3.65 2.647 2.55c.14.133.33.204.525.181a.673.673 0 0 0 .48-.278l4.39-6.287.158 2.103c.04.534.541.621.71.608a.66.66 0 0 0 .609-.708l-.279-3.699a.659.659 0 0 0-.71-.608l-3.702.278a.658.658 0 0 0-.61.709c.026.362.34.634.71.608L16.728 9l-4.024 5.76-2.653-2.557a.647.647 0 0 0-.525-.181.658.658 0 0 0-.48.285l-2.945 4.297a.66.66 0 0 0 .172.919z"/>
    </g>
</svg>
