<svg xmlns="http://www.w3.org/2000/svg" width="14" height="14" viewBox="0 0 14 14">
    <g fill="#124093" fill-rule="nonzero" stroke="#124093" stroke-width=".4">
        <path d="M12.752 13.078h-.542V4.86c0-.383-.299-.694-.666-.694h-1.213c-.367 0-.666.311-.666.694v8.218H8.287V8.583c0-.382-.299-.694-.666-.694H6.408c-.367 0-.665.312-.665.694v4.495H4.364V10.75c0-.382-.299-.693-.665-.693H2.485c-.367 0-.665.31-.665.693v2.328h-.572a.253.253 0 0 0-.248.258c0 .143.11.258.248.258h11.504a.253.253 0 0 0 .248-.258.253.253 0 0 0-.248-.258zm-8.883 0H2.315V10.75c0-.098.076-.177.17-.177H3.7c.093 0 .17.08.17.177v2.328zm3.923 0H6.238V8.583c0-.098.076-.177.17-.177H7.62c.094 0 .17.08.17.177v4.495zm3.923 0H10.16V4.86c0-.098.077-.178.17-.178h1.214c.094 0 .17.08.17.178v8.218zM12.142.996a.24.24 0 0 0-.074-.187.262.262 0 0 0-.195-.071H10.307a.252.252 0 0 0-.257.246c0 .136.115.246.257.246h.959L8.727 3.665l-.957-.919a.263.263 0 0 0-.364 0L2.79 7.174a.24.24 0 0 0 0 .348c.05.048.115.072.181.072a.262.262 0 0 0 .182-.072L7.588 3.27l.957.918c.1.096.263.096.364 0l2.72-2.609v.833c0 .136.115.246.257.246.142 0 .257-.11.257-.246V1.008.996z"/>
    </g>
</svg>
