<svg xmlns="http://www.w3.org/2000/svg" width="36" height="37" viewBox="0 0 36 37">
    <g fill="none" fill-rule="nonzero" stroke-width="1.157">
        <path stroke="#6D6D6D" d="M31.816 13.498v20.397c0 .858-.696 1.554-1.554 1.554H2.387a1.554 1.554 0 0 1-1.554-1.554V31.28A4.172 4.172 0 0 1 5 27.114h1.742c.362 0 .717.047 1.06.137v-1.196a4.172 4.172 0 0 1 4.167-4.168h1.742c.361 0 .717.047 1.06.137v-1.196a4.171 4.171 0 0 1 4.167-4.167h1.742c.361 0 .716.047 1.059.137v-3.3h-1.93a1.554 1.554 0 0 1-1.25-2.48l6.97-9.408a1.554 1.554 0 0 1 2.497 0l6.97 9.408a1.554 1.554 0 0 1-1.25 2.48h-1.93zM3.941 32.34h3.86v-1.06c0-.583-.475-1.059-1.059-1.059H5c-.583 0-1.059.476-1.059 1.06v1.059zm6.969 0h3.86v-6.286a1.06 1.06 0 0 0-1.059-1.06H11.97a1.06 1.06 0 0 0-1.06 1.06v6.286zm6.969 0h3.86V20.828c0-.583-.476-1.059-1.06-1.059h-1.741a1.06 1.06 0 0 0-1.06 1.06V32.34z"/>
        <path fill="#EC703A" stroke="#FFF" d="M30.262 11.546a.398.398 0 0 0-.398.397v21.554h-6.173V11.943a.398.398 0 0 0-.398-.397h-2.695l6.18-8.343 6.18 8.343h-2.696z"/>
        <path fill="#EC703A" stroke="#FFF" d="M30.262 11.546a.398.398 0 0 0-.398.397v21.554h-6.173V11.943a.398.398 0 0 0-.398-.397h-2.695l6.18-8.343 6.18 8.343h-2.696z"/>
    </g>
</svg>
