<svg xmlns="http://www.w3.org/2000/svg" width="30" height="22" viewBox="0 0 30 22">
    <g fill="none" fill-rule="nonzero">
        <path fill="#EC703A" d="M25.656 1.997A6.874 6.874 0 0 0 20.787 0c-1.839 0-3.568.71-4.868 1.997l-.547.541-.546-.541A6.875 6.875 0 0 0 9.956 0C8.119 0 6.39.71 5.089 1.997a6.777 6.777 0 0 0 0 9.64l9.771 9.676a.73.73 0 0 0 1.026 0l9.77-9.675c1.301-1.287 2.018-3 2.018-4.82a6.738 6.738 0 0 0-2.017-4.821zm-1.026 8.625l-9.258 9.167-9.258-9.167a5.35 5.35 0 0 1 0-7.61 5.426 5.426 0 0 1 3.843-1.576c1.451 0 2.816.56 3.843 1.576l1.06 1.05a.73.73 0 0 0 1.025 0l1.06-1.05a5.427 5.427 0 0 1 3.842-1.576c1.452 0 2.817.56 3.843 1.576a5.35 5.35 0 0 1 0 7.61z"/>
        <path fill="#6D6D6D" d="M3.798 9.224H.814c-.45 0-.814.344-.814.769 0 .424.364.769.814.769h2.984c.45 0 .814-.345.814-.77 0-.424-.364-.768-.814-.768z"/>
        <path fill="#6D6D6D" d="M25.66 8.917h-6.826l-1.062-2.644a.473.473 0 0 0-.454-.315.486.486 0 0 0-.427.357L14.72 13.24l-2.64-8.272a.486.486 0 0 0-.425-.354c-.205-.011-.37.111-.452.308L9.43 9.186H3.55c-.262 0-.475.24-.475.538 0 .297.313.512.575.512h6.182c.184 0 .251-.094.33-.283l1.414-3.4 2.701 8.466c.068.213.247.355.447.355h.001c.201 0 .38-.144.447-.358l2.221-7.085.702 1.746c.077.193.347.29.533.29h7.132c.263 0 .375-.215.375-.512 0-.297-.213-.538-.475-.538zM28.595 9.224H26.75c-.34 0-.615.344-.615.769 0 .424.276.769.615.769h1.845c.34 0 .615-.345.615-.77 0-.424-.275-.768-.615-.768z"/>
    </g>
</svg>
