<svg xmlns="http://www.w3.org/2000/svg" width="52" height="63" viewBox="0 0 52 63">
    <g fill="none" fill-rule="nonzero">
        <path fill="#636363" stroke="#FFF" stroke-width=".7" d="M50.78 53.993l-6.338-8.227a9.182 9.182 0 0 0 5.015-3.749c1.492-2.605.817-5.784.164-8.855a24.406 24.406 0 0 1-.705-4.817c.074-1.627.31-3.242.705-4.821.65-3.073 1.328-6.25-.164-8.852-1.546-2.696-4.658-3.694-7.669-4.658a22.18 22.18 0 0 1-4.33-1.712 21.202 21.202 0 0 1-3.47-2.84C31.755 3.37 29.223 1 26 1c-3.223 0-5.755 2.37-7.99 4.461a21.207 21.207 0 0 1-3.468 2.841 22.174 22.174 0 0 1-4.33 1.708c-3.01.963-6.122 1.962-7.668 4.658-1.492 2.605-.817 5.785-.164 8.856.395 1.579.63 3.194.704 4.82a24.398 24.398 0 0 1-.705 4.822c-.65 3.073-1.328 6.25.164 8.851a9.182 9.182 0 0 0 5.02 3.748l-6.344 8.227a1.058 1.058 0 0 0 .183 1.476c.219.171.495.248.77.213l7.447-.939 1.839 6.495a1.046 1.046 0 0 0 1 .763c.322 0 .626-.15.824-.406l6.652-8.639A9.59 9.59 0 0 0 26 55.69a9.59 9.59 0 0 0 6.067-2.735l6.651 8.636a1.037 1.037 0 0 0 1.824-.354l1.839-6.494 7.448.94a1.044 1.044 0 0 0 1.163-.913 1.06 1.06 0 0 0-.211-.777zm-37.884 4.674l-1.52-5.37a1.042 1.042 0 0 0-1.13-.754l-5.833.736 5.228-6.786.576.187c1.497.415 2.946.988 4.325 1.708a21.202 21.202 0 0 1 3.47 2.84l.358.334-5.474 7.105zM26 53.587c-2.406 0-4.43-1.894-6.574-3.9a23.002 23.002 0 0 0-3.842-3.121 24.016 24.016 0 0 0-4.743-1.893c-2.753-.883-5.354-1.716-6.496-3.707-1.09-1.903-.527-4.554.07-7.363.43-1.722.682-3.484.752-5.258a25.977 25.977 0 0 0-.75-5.259c-.598-2.807-1.16-5.458-.07-7.362 1.145-1.992 3.742-2.825 6.495-3.707a24.023 24.023 0 0 0 4.742-1.893 23.001 23.001 0 0 0 3.841-3.12c2.145-2.007 4.169-3.9 6.575-3.9 2.406 0 4.43 1.893 6.574 3.9a23.002 23.002 0 0 0 3.842 3.12c1.51.798 3.1 1.433 4.743 1.893 2.753.882 5.354 1.715 6.496 3.707 1.09 1.903.527 4.554-.07 7.362a25.988 25.988 0 0 0-.752 5.259c.07 1.774.322 3.536.75 5.258.598 2.807 1.16 5.459.07 7.363-1.145 1.991-3.742 2.824-6.495 3.707a24.023 24.023 0 0 0-4.742 1.893 23.001 23.001 0 0 0-3.841 3.12c-2.145 2.007-4.169 3.9-6.575 3.9zm15.759-1.044a1.042 1.042 0 0 0-1.13.754l-1.525 5.37-5.473-7.104.358-.335a21.207 21.207 0 0 1 3.47-2.84 22.174 22.174 0 0 1 4.328-1.708l.576-.187 5.23 6.786-5.834-.736z"/>
        <path fill="#636363" stroke="#FFF" stroke-width=".7" d="M26 9C15.507 9 7 17.507 7 28s8.507 19 19 19 19-8.507 19-19c-.012-10.488-8.512-18.988-19-19zm0 35.889c-9.327 0-16.889-7.562-16.889-16.889 0-9.327 7.562-16.889 16.889-16.889 9.327 0 16.889 7.562 16.889 16.889-.011 9.323-7.566 16.878-16.889 16.889z"/>
        <path fill="#EC703A" d="M37.63 23.748a1.928 1.928 0 0 0-1.558-.795h-5.906l-1.832-5.625a1.929 1.929 0 0 0-3.666 0l-1.828 5.625h-5.91a1.93 1.93 0 0 0-1.136 3.492l4.78 3.475-1.826 5.625a1.93 1.93 0 0 0 2.97 2.158L26.5 34.23l4.781 3.475a1.9 1.9 0 0 0 2.27 0 1.904 1.904 0 0 0 .7-2.158l-1.827-5.626 4.78-3.475a1.931 1.931 0 0 0 .425-2.697z"/>
    </g>
</svg>
