<svg xmlns="http://www.w3.org/2000/svg" width="20" height="15" viewBox="0 0 20 15">
    <g fill="none" fill-rule="nonzero">
        <path fill="#6D6D6D" stroke="#FFF" stroke-width=".1" d="M9.918.09a.486.486 0 0 1 .564 0l8.722 6.263c.213.153.26.446.104.655a.48.48 0 0 1-.669.101L17 5.931 17 13.893a.5.5 0 0 1-.394.499l-.086.008H3.08a.494.494 0 0 1-.48-.507l-.001-7.386-.838.602a.485.485 0 0 1-.612-.037l-.057-.064a.463.463 0 0 1 .104-.655zm.282.96L3.5 5.86c.038.073.06.157.06.247v7.277H7.4v-4.41c0-1.398 1.077-2.537 2.4-2.537s2.4 1.139 2.4 2.538v4.409h3.84V5.307c0-.02.001-.041.003-.061L10.2 1.05z"/>
        <path fill="#EC703A" d="M12.2 13.517V8.976c0-1.4-1.077-2.538-2.4-2.538S7.4 7.577 7.4 8.976l.004 4.54H12.2z"/>
    </g>
</svg>
