<svg xmlns="http://www.w3.org/2000/svg" width="25" height="27" viewBox="0 0 25 27">
    <g fill="none" fill-rule="nonzero">
        <path fill="#6D6D6D" d="M13 4.2c-4.632 0-8.4 3.714-8.4 8.278 0 3.463 2.17 6.531 5.435 7.743v4.431c0 .27.221.487.494.487h.495v.974c0 .27.22.487.494.487h2.964a.49.49 0 0 0 .494-.487v-.974h.495a.49.49 0 0 0 .494-.487v-4.431c3.265-1.212 5.435-4.28 5.435-7.743C21.4 7.914 17.632 4.2 13 4.2zm2.316 15.213a.488.488 0 0 0-.34.463v.88h-3.952v-.88a.487.487 0 0 0-.34-.463c-3.048-.987-5.096-3.774-5.096-6.935 0-4.027 3.325-7.304 7.412-7.304s7.412 3.277 7.412 7.304c0 3.16-2.048 5.948-5.096 6.935z"/>
        <path fill="#EC703A" d="M14.482 24.165a.49.49 0 0 0-.494.487v.974h-1.976v-.974a.49.49 0 0 0-.494-.487h-.494V21.73h3.952v2.435h-.494z"/>
        <path fill="#6D6D6D" d="M12.65 2.8c.194 0 .35-.209.35-.467V.467C13 .209 12.844 0 12.65 0c-.194 0-.35.209-.35.467v1.866c0 .258.156.467.35.467zM24.433 11.9h-1.866c-.258 0-.467.156-.467.35 0 .194.209.35.467.35h1.866c.258 0 .467-.156.467-.35 0-.194-.209-.35-.467-.35zM2.733 11.9H.867c-.258 0-.467.156-.467.35 0 .194.209.35.467.35h1.866c.258 0 .467-.156.467-.35 0-.194-.209-.35-.467-.35zM20.657 3.627l-1.23 1.23a.435.435 0 1 0 .616.616l1.23-1.23a.435.435 0 1 0-.616-.616zM5.257 19.028l-1.23 1.23a.434.434 0 1 0 .616.615l1.23-1.23a.434.434 0 1 0-.616-.615zM20.043 19.028a.434.434 0 1 0-.615.615l1.23 1.23a.434.434 0 0 0 .614 0 .434.434 0 0 0 0-.615l-1.23-1.23zM5.257 5.473a.434.434 0 0 0 .615 0 .434.434 0 0 0 0-.615l-1.23-1.23a.434.434 0 1 0-.614.615l1.23 1.23z"/>
        <path fill="#EC703A" d="M12.515 6.3A5.822 5.822 0 0 0 6.7 12.115a.484.484 0 1 0 .97 0 4.852 4.852 0 0 1 4.845-4.846.484.484 0 1 0 0-.969z"/>
    </g>
</svg>
