<svg xmlns="http://www.w3.org/2000/svg" width="16" height="16" viewBox="0 0 16 16">
    <g fill="#317FFF" fill-rule="nonzero">
        <path d="M7.995 0C3.587 0 0 3.586 0 7.995c0 4.409 3.587 7.995 7.995 7.995 4.408 0 7.995-3.586 7.995-7.995C15.99 3.586 12.403 0 7.995 0zm0 15.006A7.019 7.019 0 0 1 .984 7.995 7.019 7.019 0 0 1 7.995.984a7.019 7.019 0 0 1 7.011 7.011 7.019 7.019 0 0 1-7.011 7.011z"/>
        <circle cx="7.995" cy="4.305" r="1"/>
        <path d="M7.995 6.15c-.34 0-.615.21-.615.469V10.6c0 .26.276.469.615.469.34 0 .615-.21.615-.469V6.62c0-.26-.276-.469-.615-.469z"/>
    </g>
</svg>
