<svg xmlns="http://www.w3.org/2000/svg" width="21" height="21" viewBox="0 0 21 21">
    <g fill="#B8B8B8" fill-rule="nonzero">
        <path d="M14.987 0H5.712A5.719 5.719 0 0 0 0 5.712v9.276A5.719 5.719 0 0 0 5.712 20.7h9.275a5.719 5.719 0 0 0 5.713-5.712V5.712A5.719 5.719 0 0 0 14.987 0zm3.877 14.988a3.88 3.88 0 0 1-3.876 3.875H5.712a3.88 3.88 0 0 1-3.875-3.875V5.712a3.88 3.88 0 0 1 3.875-3.875h9.275a3.88 3.88 0 0 1 3.877 3.875v9.276z"/>
        <path d="M10.8 5.4a5.406 5.406 0 0 0-5.4 5.4c0 2.978 2.422 5.4 5.4 5.4s5.4-2.422 5.4-5.4-2.422-5.4-5.4-5.4zm0 8.94a3.545 3.545 0 0 1-3.54-3.54 3.545 3.545 0 0 1 3.54-3.54 3.545 3.545 0 0 1 3.54 3.54 3.545 3.545 0 0 1-3.54 3.54zM15.75 3.6a1.355 1.355 0 0 0-1.35 1.35c0 .355.145.703.396.955.25.25.6.395.954.395.356 0 .703-.145.955-.395.251-.252.395-.6.395-.955 0-.356-.144-.704-.395-.955a1.356 1.356 0 0 0-.955-.395z"/>
    </g>
</svg>
