<svg xmlns="http://www.w3.org/2000/svg" width="38" height="38" viewBox="0 0 38 38">
    <g fill="none" fill-rule="nonzero" stroke="#FFF" stroke-width=".5">
        <path fill="#636363" d="M37.2.8H16.637l-8.47 8.47v1.317c-.233.141-.456.3-.65.494l-2.945 2.945a7.499 7.499 0 0 0-2.21 5.338l.001 10.468H1.2V36.8h11.613v-3.484H37.2V.8zM16.297 2.782V8.93H10.15l6.147-6.147zM3.523 19.364c0-1.706.664-3.31 1.87-4.517l2.775-2.774v10.21H7.006v1.162h1.942c.775 0 1.504-.302 2.052-.85l2.783-2.784a1.474 1.474 0 0 1 2.082 2.082L11.34 26.42a2.885 2.885 0 0 0-.85 2.053v1.36H3.524l-.001-10.468zm8.129 16.275h-9.29v-4.645h9.29v4.645zm24.387-3.484H12.813v-2.323h-1.161v-1.36c0-.466.18-.904.51-1.232l4.524-4.525a2.615 2.615 0 0 0 .772-1.862 2.636 2.636 0 0 0-2.634-2.634c-.703 0-1.364.274-1.862.771l-2.783 2.783a1.753 1.753 0 0 1-.85.464V10.09h8.13V1.961h18.58v30.194z"/>
        <path fill="#636363" d="M16.4 12.99l6.09 6.21L35.6 5.832 33.018 3.2 22.491 13.935l-3.51-3.578z"/>
        <path fill="#EC703A" d="M33.018 4.887l.928.945-11.455 11.681-4.437-4.524.928-.946 3.509 3.579z"/>
        <path fill="#636363" d="M19.6 31.2h16V20.8h-16z"/>
        <path fill="#EC703A" d="M20.743 21.956h13.714v8.088H20.743z"/>
    </g>
</svg>
