<svg xmlns="http://www.w3.org/2000/svg" width="18" height="17" viewBox="0 0 18 17">
    <g fill="none" fill-rule="nonzero">
        <path fill="#6D6D6D" stroke="#FFF6E1" stroke-width=".3" d="M14.875 1H4.25c-1.174 0-2.125.96-2.125 2.143v2.143h1.063V3.143c0-.592.475-1.072 1.062-1.072h10.625c.587 0 1.063.48 1.063 1.072v10.714c0 .592-.476 1.072-1.063 1.072H4.25c-.587 0-1.063-.48-1.063-1.072v-2.143H2.125v2.143c0 1.184.951 2.143 2.125 2.143h10.625C16.049 16 17 15.04 17 13.857V3.143A2.134 2.134 0 0 0 14.875 1z"/>
        <path fill="#EC703A" d="M9.213 11.844a.538.538 0 0 0 0 .757c.208.21.544.21.752 0l3.665-3.696a.532.532 0 0 0 .15-.406.531.531 0 0 0-.15-.405L9.965 4.398a.528.528 0 0 0-.752 0 .538.538 0 0 0 0 .758L12 7.964H.53A.534.534 0 0 0 0 8.5c0 .296.238.536.531.536H12l-2.786 2.808z"/>
    </g>
</svg>
