<svg xmlns="http://www.w3.org/2000/svg" width="15" height="17" viewBox="0 0 15 17">
    <g fill="none" fill-rule="nonzero">
        <path fill="#EC703A" d="M7.56 1.363v8.14c0 .275-.251.497-.56.497-.31 0-.56-.222-.56-.496V1.363a.56.56 0 1 1 1.12 0z"/>
        <path fill="#6D6D6D" d="M4.408 3.24a.478.478 0 0 1-.176.655A6.502 6.502 0 0 0 .963 9.533c0 3.588 2.933 6.508 6.537 6.508s6.537-2.92 6.537-6.508a6.502 6.502 0 0 0-3.269-5.638.478.478 0 0 1-.176-.655.483.483 0 0 1 .658-.175A7.46 7.46 0 0 1 15 9.533C15 13.66 11.646 17 7.5 17 3.355 17 0 13.66 0 9.533a7.46 7.46 0 0 1 3.75-6.469.483.483 0 0 1 .658.175z"/>
    </g>
</svg>
