<svg xmlns="http://www.w3.org/2000/svg" width="24" height="24" viewBox="0 0 24 24">
    <g fill="#999" fill-rule="nonzero">
        <path d="M18.785 11.622H4.622c-.343 0-.622.259-.622.578 0 .32.279.578.622.578h14.163c.344 0 .622-.259.622-.578 0-.32-.278-.578-.622-.578zM18.785 7H4.622C4.28 7 4 7.259 4 7.578c0 .319.279.578.622.578h14.163c.344 0 .622-.26.622-.578 0-.32-.278-.578-.622-.578zM18.785 16.244H4.622c-.343 0-.622.26-.622.578 0 .32.279.578.622.578h14.163c.344 0 .622-.259.622-.578 0-.319-.278-.578-.622-.578z"/>
    </g>
</svg>
