<svg xmlns="http://www.w3.org/2000/svg" width="37" height="37" viewBox="0 0 37 37">
    <g fill="none" fill-rule="evenodd">
        <path fill="#6D6D6D" fill-rule="nonzero" stroke="#FFF" stroke-width=".7" d="M4.678 34.872c2.17 1.162 5.151 1.704 9.38 1.704 3.44 0 6.03-.357 8.04-1.115a3.124 3.124 0 0 0 2.393 1.115v-18.78a3.07 3.07 0 0 0-.302.015 14.287 14.287 0 0 0-3.626-3.147 3.117 3.117 0 0 0 .798-2.085 3.134 3.134 0 0 0-1.79-2.828l1.738-5.334a1.044 1.044 0 0 0-.991-1.367h-3.31a3.135 3.135 0 0 0-2.95-2.086c-1.36 0-2.52.872-2.952 2.086H7.798a1.043 1.043 0 0 0-.992 1.367l1.74 5.334a3.134 3.134 0 0 0-1.792 2.828c0 .8.303 1.532.799 2.086C3.367 17.19.425 21.99.425 27.185c0 3.59 1.43 6.176 4.253 7.687zM11.97 5.137c.576 0 1.043-.467 1.043-1.043a1.045 1.045 0 0 1 2.087 0V6.18a1.043 1.043 0 1 0 2.087 0V5.137h1.692L17.474 9.45h-6.832L9.235 5.137h2.736zm6.052 10.572c1.58.66 3.02 1.7 4.221 3.04a3.119 3.119 0 0 0-.084 4.264 3.118 3.118 0 0 0 0 4.173 3.118 3.118 0 0 0 0 4.173 3.118 3.118 0 0 0-.8 2.087l.002.064c-1.764.666-4.115.979-7.304.979-3.872 0-6.54-.463-8.396-1.457-2.15-1.15-3.15-3.008-3.15-5.846 0-4.921 3.106-9.61 7.576-11.477h7.935zm.211-4.173a1.044 1.044 0 0 1-.003 2.087H9.884a1.044 1.044 0 0 1-.003-2.086h8.353z"/>
        <path fill="#FFF" fill-rule="nonzero" stroke="#EC703A" stroke-width="2.126" d="M35.013 25.1a2.107 2.107 0 0 1-2.106 2.105H24.49a2.107 2.107 0 0 1-2.106-2.106c0-1.162.944-2.106 2.106-2.106h8.416c1.162 0 2.106.944 2.106 2.106z"/>
        <path fill="#FFF" fill-rule="nonzero" stroke="#EC703A" stroke-width="2.126" d="M35.013 29.272a2.107 2.107 0 0 1-2.106 2.107H24.49a2.107 2.107 0 0 1-2.106-2.107c0-1.162.944-2.106 2.106-2.106h8.416c1.162 0 2.106.944 2.106 2.106z"/>
        <path fill="#FFF" fill-rule="nonzero" stroke="#EC703A" stroke-width="2.126" d="M32.907 35.552H24.49a2.107 2.107 0 0 1-2.106-2.106c0-1.163.944-2.106 2.106-2.106h8.416c1.162 0 2.106.943 2.106 2.106a2.107 2.107 0 0 1-2.106 2.106zM35.013 20.926a2.107 2.107 0 0 1-2.106 2.106H24.49a2.107 2.107 0 0 1-2.106-2.106c0-1.162.944-2.106 2.106-2.106h8.416c1.162 0 2.106.944 2.106 2.106z"/>
        <text fill="#EC703A" font-family="Montserrat-Bold, Montserrat" font-size="12.512" font-weight="bold" transform="translate(.425 .964)">
            <tspan x="8.503" y="27.942">₹</tspan>
        </text>
    </g>
</svg>
