<svg xmlns="http://www.w3.org/2000/svg" width="18" height="16" viewBox="0 0 18 16">
    <g fill="none" fill-rule="nonzero">
        <g fill="#6D6D6D">
            <path d="M17.582 10.869a1.161 1.161 0 0 0-.952-.833v-6.59h.583a.29.29 0 0 0 .292-.287V.287A.29.29 0 0 0 17.213 0H4.376a.29.29 0 0 0-.291.287V3.16c0 .158.13.287.291.287h.584v5.743h-.292a3.801 3.801 0 0 0-2.042.588v-1.45a.29.29 0 0 0-.292-.287H.292A.29.29 0 0 0 0 8.327v6.605c0 .158.13.287.292.287h2.042a.29.29 0 0 0 .292-.287v-1.45c.609.386 1.318.59 2.042.588h4.79a3.9 3.9 0 0 0 .983-.127l6.317-1.666c.622-.166.99-.796.824-1.408zM5.543 3.446h10.503v6.64l-3.386.893a1.167 1.167 0 0 0-.771-.666L7.957 9.275a2.692 2.692 0 0 0-.678-.086H5.543V3.446zm-3.5 11.199H.582v-6.03h1.46v6.03zm14.564-2.922l-6.316 1.665a3.297 3.297 0 0 1-.832.108H4.668a3.221 3.221 0 0 1-1.926-.632l-.116-.086v-2.297l.116-.086a3.22 3.22 0 0 1 1.926-.632h2.611c.178 0 .356.023.529.068l3.93 1.036a.582.582 0 0 1 .428.495.277.277 0 0 0 .012.035.28.28 0 0 0-.008.037.582.582 0 0 1-.734.544l-2.48-.654a.295.295 0 0 0-.287.07.284.284 0 0 0 .136.484l2.48.655c.1.026.201.039.304.038.524 0 .984-.345 1.123-.843.016-.058.027-.117.033-.176l3.557-.939a.583.583 0 0 1 .737.554c0 .26-.177.488-.432.556z"/>
            <path d="M9.078 4.806h2.67c.147 0 .267-.18.267-.4 0-.222-.12-.401-.267-.401h-2.67c-.147 0-.267.18-.267.4 0 .222.12.401.267.401z"/>
        </g>
        <path fill="#EC703A" d="M4.668.574h12.254v2.298H4.668z"/>
    </g>
</svg>
