<svg xmlns="http://www.w3.org/2000/svg" width="23" height="23" viewBox="0 0 23 23">
    <g fill="#E74C08" fill-rule="nonzero">
        <path d="M16.048 11.194h-2.774a.694.694 0 0 0-.693.693v5.548c0 .384.31.694.693.694h2.774c.766 0 1.387-.621 1.387-1.387V12.58c0-.766-.62-1.387-1.387-1.387zm0 5.548h-2.08V12.58h2.08v4.16zM22.29 12.58v-1.386h-3.467a.694.694 0 0 0-.694.693v6.242h1.387v-2.774h2.774v-1.387h-2.774V12.58h2.774z"/>
        <path d="M1.484 20.21V2.177c0-.383.31-.693.693-.693h10.404v2.774c0 .766.62 1.387 1.387 1.387h2.774v2.08h1.387V4.953a.693.693 0 0 0-.201-.493L13.767.298a.694.694 0 0 0-.493-.201H2.177a2.08 2.08 0 0 0-2.08 2.08V20.21c0 1.149.931 2.08 2.08 2.08h4.855v-1.387H2.177a.694.694 0 0 1-.693-.693z"/>
        <path d="M10.5 11.194H7.726a.694.694 0 0 0-.694.693v6.242H8.42v-2.08H10.5c.766 0 1.387-.622 1.387-1.388v-2.08c0-.766-.62-1.387-1.387-1.387zm0 3.467H8.42v-2.08h2.08v2.08z"/>
    </g>
</svg>
