<svg xmlns="http://www.w3.org/2000/svg" width="17" height="17" viewBox="0 0 17 17">
    <g fill="none" fill-rule="nonzero">
        <path fill="#6D6D6D" d="M14 14.846l-.599-1.87a1.835 1.835 0 0 0-1.394-1.258l-1.73-.327v-.14c.301-.182.563-.425.772-.713h.522c.428 0 .776-.362.776-.807V6.5c0-1.93-1.509-3.5-3.363-3.5C7.129 3 5.62 4.57 5.62 6.5v1.885c0 .519.355.953.825 1.054.145.774.61 1.429 1.245 1.812v.14l-1.73.327a1.835 1.835 0 0 0-1.393 1.258l-.104.323-.881-.917a.278.278 0 0 1 0-.38l1.022-1.064-1.919-1.996-1.155 1.202c-.342.356-.53.83-.53 1.333s.188.976.53 1.332l3.497 3.639c.342.356.797.552 1.281.552.484 0 .939-.196 1.273-.544l1.26-1.202-.393-.408H14zm-2.17-5.115c0 .148-.116.269-.259.269h-.217c.075-.178.132-.366.168-.56.111-.025.213-.07.308-.128v.419zm-.259-.883v-.927a.54.54 0 0 1 .259.464.54.54 0 0 1-.259.463zm-5.175 0a.54.54 0 0 1-.258-.463.54.54 0 0 1 .258-.464v.927zm0-1.81v.308a1.005 1.005 0 0 0-.258.111V6.5c0-1.633 1.276-2.962 2.846-2.962 1.569 0 2.846 1.33 2.846 2.962v.957a.995.995 0 0 0-.259-.111v-.308h-.259c-.765 0-1.484-.31-2.025-.873l-.303-.315-.303.315a2.792 2.792 0 0 1-2.026.873h-.259zm3.364 4.453v.013l-.776.808-.776-.808v-.013a2.491 2.491 0 0 0 1.552 0zm-4.703 1.655c.15-.466.531-.81.996-.899l1.809-.342 1.122 1.168 1.122-1.167 1.808.342c.465.088.847.432.996.899l.372 1.16H7.93L6.923 13.26l-1.12 1.054a.257.257 0 0 1-.366 0l-.565-.588.185-.579zM2.685 9.704l1.187 1.234-.281.293-1.187-1.235.281-.292zm5.068 5.857l-1.19-1.237.342-.322 1.187 1.236-.34.324z"/>
        <path fill="#EC703A" d="M7.222 16.068a1.262 1.262 0 0 1-1.83 0l-3.496-3.64a1.365 1.365 0 0 1-.379-.951c0-.36.135-.698.379-.952l.142-.148 1.187 1.235-.01.01a.832.832 0 0 0 0 1.142l1.856 1.93a.757.757 0 0 0 1.088.01l.02-.018 1.192 1.24-.149.142zM6.914 8.923V7.567a3.295 3.295 0 0 0 2.07-.957 3.294 3.294 0 0 0 2.07.957v1.356c0 .393-.103.76-.28 1.077h-1.79v.538h1.364a2.014 2.014 0 0 1-1.364.539c-1.142 0-2.07-.966-2.07-2.154z"/>
        <path fill="#6D6D6D" d="M16.25 1h-3.5a.75.75 0 0 0-.75.749v1.997a.75.75 0 0 0 .75.749h.668L13.159 6l2.413-1.505h.678a.75.75 0 0 0 .75-.75V1.75A.75.75 0 0 0 16.25 1zm.25 2.746a.25.25 0 0 1-.25.25h-.822l-1.588.99.17-.99h-1.26a.25.25 0 0 1-.25-.25V1.749a.25.25 0 0 1 .25-.25h3.5a.25.25 0 0 1 .25.25v1.997z"/>
        <path fill="#6D6D6D" d="M13 1.758h3v1h-3zM13 2.758h2v1h-2zM15.758 2.758h1v1h-1zM8.22.64c-3.644.447-6.48 3.308-6.871 6.86l-.635-.8-.443.34 1.177 1.484L2.963 7.36l-.345-.435-.7.538C2.32 4.21 4.934 1.6 8.285 1.188a7.428 7.428 0 0 1 2.188.053l.1-.543A7.994 7.994 0 0 0 8.22.64zM17 7.82L15.296 7l-1.022 1.367.499.24.509-.68a4.97 4.97 0 0 1 .405 1.96c0 1.387-.6 2.744-1.687 3.819l.452.294c1.171-1.158 1.817-2.62 1.817-4.113 0-.714-.144-1.41-.423-2.078l.855.411.299-.4z"/>
    </g>
</svg>
