<svg xmlns="http://www.w3.org/2000/svg" width="15" height="15" viewBox="0 0 15 15">
    <g fill="none" fill-rule="nonzero">
        <g fill="#6D6D6D">
            <path d="M.5 7.525C.5 3.652 3.633.502 7.487.502c2.163 0 4.188 1.023 5.505 2.759h-1.511a.25.25 0 0 0-.25.25c0 .139.112.251.25.251h1.996c.008 0 .015-.003.022-.004a.25.25 0 0 0 .096-.029c.006-.004.014-.004.02-.009.007-.004.011-.011.017-.017a.232.232 0 0 0 .062-.074.227.227 0 0 0 .018-.044.212.212 0 0 0 .01-.05c.001-.008.005-.015.005-.024V1.505a.25.25 0 1 0-.5 0v1.25C11.817 1.018 9.723 0 7.489 0 3.359 0 0 3.376 0 7.525c0 .798.124 1.583.367 2.334a.25.25 0 1 0 .475-.156 7.043 7.043 0 0 1-.343-2.178zM14.403 4.923a.25.25 0 0 0-.474.158 6.98 6.98 0 0 1 .356 2.21c0 3.856-3.135 6.993-6.989 6.993a6.92 6.92 0 0 1-5.505-2.747h1.511a.25.25 0 0 0 0-.5H1.306c-.008 0-.014.004-.022.005a.245.245 0 0 0-.096.028c-.006.004-.014.004-.02.009-.007.004-.011.012-.018.017a.267.267 0 0 0-.061.074.231.231 0 0 0-.028.093c-.001.008-.005.015-.005.024v1.998a.25.25 0 0 0 .5 0v-1.244a7.41 7.41 0 0 0 5.74 2.743c4.129 0 7.488-3.362 7.488-7.494 0-.81-.129-1.606-.381-2.367z"/>
            <path d="M7.942 9.87c.001.004.005.007.007.011a.265.265 0 0 0 .049.073.26.26 0 0 0 .068.046c.006.003.01.008.016.01a.262.262 0 0 0 .102.022H9.548c.232 0 1.426-.042 2.254-.87.916-.916.871-2.252.87-2.298v-1.32a.264.264 0 0 0-.265-.263H11.1l-.056-.001c-.231 0-1.426.042-2.254.87-.916.916-.87 2.253-.868 2.298v1.317c0 .036.007.071.02.105z"/>
            <path d="M7.048 3.99c-.805-.763-1.926-.822-2.25-.822H3.433a.257.257 0 0 0-.264.25v1.24c-.002.053-.047 1.32.868 2.187.829.786 2.023.826 2.254.826h1.1v4.75c0 .139.118.251.264.251a.257.257 0 0 0 .264-.25V7.424 6.178c.002-.053.044-1.32-.87-2.187z"/>
        </g>
        <path fill="#EC703A" d="M7.392 6.168v.647L4.675 4.24a.274.274 0 0 0-.373 0 .24.24 0 0 0 0 .354L7.02 7.17h-.729c-.194 0-1.2-.032-1.88-.678-.75-.71-.715-1.803-.714-1.824v-1h1.1c.195 0 1.199.033 1.878.676.749.71.717 1.804.717 1.824zM9.163 6.523c.68-.68 1.685-.715 1.88-.715h1.1v1.067c.001.012.04 1.16-.714 1.914-.681.68-1.686.715-1.88.715h-.727l2.717-2.717a.264.264 0 1 0-.373-.373L8.449 9.13v-.693c-.001-.012-.036-1.165.714-1.914z"/>
    </g>
</svg>
