<svg xmlns="http://www.w3.org/2000/svg" width="16" height="16" viewBox="0 0 16 16">
    <g fill="none" fill-rule="nonzero">
        <path fill="#6D6D6D" d="M11.717 6.016A.29.29 0 0 0 12 5.719V.891C12 .4 11.62 0 11.15 0H.85C.38 0 0 .4 0 .89v13.42c0 .49.38.89.85.89h10.3c.47 0 .85-.4.85-.89v-2.988a.29.29 0 0 0-.283-.297.29.29 0 0 0-.283.297v2.987a.29.29 0 0 1-.283.297H.849a.29.29 0 0 1-.283-.297V.891A.29.29 0 0 1 .849.594h10.302a.29.29 0 0 1 .283.297v4.828a.29.29 0 0 0 .283.297z"/>
        <path fill="#6D6D6D" d="M6.8 1.6A2.803 2.803 0 0 0 4 4.4a2.792 2.792 0 0 0 .912 2.066A2.79 2.79 0 0 0 6.8 7.2a2.79 2.79 0 0 0 1.92-.765c.542-.51.88-1.234.88-2.035 0-1.544-1.256-2.8-2.8-2.8zm-.487 2.678V4.08a.488.488 0 0 1 .974 0v.198a.488.488 0 0 1-.974 0z"/>
        <path fill="#EC703A" d="M8.563 5.7a2.111 2.111 0 0 0-.896-.753 1.09 1.09 0 0 0 .229-.669V4.08a1.097 1.097 0 0 0-2.192 0v.198c0 .252.086.484.23.67-.362.16-.673.418-.897.751A2.18 2.18 0 0 1 4.609 4.4c0-1.208.983-2.191 2.191-2.191 1.208 0 2.191.983 2.191 2.191 0 .486-.159.935-.428 1.3zM6.8 6.591a2.18 2.18 0 0 1-1.324-.446A1.512 1.512 0 0 1 6.8 5.374c.557 0 1.056.297 1.324.77a2.18 2.18 0 0 1-1.324.447z"/>
        <path fill="#6D6D6D" d="M7.676 12.8H5.924c-.179 0-.324.18-.324.4 0 .22.145.4.324.4h1.752c.179 0 .324-.18.324-.4 0-.22-.145-.4-.324-.4zM8.504 11.2H4.296c-.163 0-.296.18-.296.4 0 .22.133.4.296.4h4.208c.163 0 .296-.18.296-.4 0-.22-.133-.4-.296-.4zM8.504 9.6H4.296C4.133 9.6 4 9.78 4 10c0 .22.133.4.296.4h4.208c.163 0 .296-.18.296-.4 0-.22-.133-.4-.296-.4zM3.083 8.117a.403.403 0 0 0-.566 0 .403.403 0 0 0 0 .566.403.403 0 0 0 .283.117.403.403 0 0 0 .4-.4.403.403 0 0 0-.117-.283zM3.083 9.717A.403.403 0 0 0 2.8 9.6a.403.403 0 0 0-.4.4.403.403 0 0 0 .4.4.403.403 0 0 0 .4-.4.403.403 0 0 0-.117-.283zM3.083 11.317A.403.403 0 0 0 2.8 11.2a.403.403 0 0 0-.4.4.403.403 0 0 0 .4.4.403.403 0 0 0 .4-.4.403.403 0 0 0-.117-.283zM8.504 8H4.296C4.133 8 4 8.18 4 8.4c0 .22.133.4.296.4h4.208c.163 0 .296-.18.296-.4 0-.22-.133-.4-.296-.4zM14.573 3.376a1.199 1.199 0 0 0-.95-.13c-.324.09-.595.307-.762.61l-3.757 6.8a.322.322 0 0 0-.038.122l-.264 2.475a.316.316 0 0 0 .147.305.288.288 0 0 0 .327-.019l1.918-1.477a.307.307 0 0 0 .082-.095l3.756-6.8c.346-.627.14-1.43-.459-1.79zm-5.102 9.238l.138-1.293.864.521-1.002.772zm5.044-7.76l-.294.533-1.137-.687.294-.532a.657.657 0 0 1 .399-.32.628.628 0 0 1 .498.069c.152.091.26.24.306.416a.709.709 0 0 1-.066.521z"/>
        <path fill="#EC703A" d="M10.908 11.385l-1.137-.687 3.014-5.457 1.138.686z"/>
    </g>
</svg>
