<svg xmlns="http://www.w3.org/2000/svg" width="100" height="70" viewBox="0 0 100 70">
    <g fill="none" fill-rule="evenodd">
        <path d="M0 0h100v70H0z"/>
        <g fill-rule="nonzero">
            <path fill="#636363" d="M51.842 19.747a1.074 1.074 0 1 0 0 2.149 1.074 1.074 0 0 0 0-2.149z"/>
            <path fill="#636363" stroke="#FFF" stroke-width=".6" d="M79.398 31.852c-.37-6.765-3.417-13.141-8.581-17.955-4.888-4.558-11.09-7.172-17.568-7.43V5.063a1.063 1.063 0 0 0-2.126 0v1.404c-6.475.258-12.673 2.873-17.554 7.43-5.155 4.813-8.197 11.19-8.567 17.955a1.063 1.063 0 0 0 2.1.287c.18-.816 2.458-2.002 5.62-2.002 3.245 0 5.315 1.259 5.315 2.125 0 .582.468 1.054 1.048 1.062h.012l.003.001.019-.001a1.062 1.062 0 0 0 1.055-1.046c0-.037.002-.074.003-.11.18-.823 2.467-2.03 5.631-2.03 3.245 0 5.315 1.258 5.315 2.124v20.825a3.192 3.192 0 0 1-3.189 3.188 3.169 3.169 0 0 1-2.255-.934 3.165 3.165 0 0 1-.934-2.254v-2.125a1.063 1.063 0 0 0-2.126 0v2.125c0 1.419.553 2.753 1.557 3.757a5.282 5.282 0 0 0 3.758 1.556 5.32 5.32 0 0 0 5.315-5.313V32.262c0-.866 2.07-2.125 5.315-2.125 3.185 0 5.483 1.21 5.66 2.034l.002.107a1.063 1.063 0 0 0 1.063 1.047h.027a1.062 1.062 0 0 0 1.047-1.063c0-.866 2.07-2.125 5.315-2.125 3.163 0 5.441 1.185 5.62 2a1.063 1.063 0 0 0 2.1-.285zm-41.203-2.527c-1.34-.817-3.264-1.313-5.473-1.313-1.739 0-3.458.321-4.841.903a8.77 8.77 0 0 0-.423.191c1.692-9.442 9.03-17.163 18.273-19.673-1.254 1.237-2.418 2.841-3.455 4.786-2.21 4.147-3.63 9.435-4.081 15.106zm20.37-1.313c-2.124 0-3.985.459-5.316 1.22v-4.407a1.063 1.063 0 0 0-2.126 0v4.407c-1.33-.761-3.192-1.22-5.315-1.22-1.917 0-3.96.414-5.47 1.205.933-10.739 5.5-19.49 10.785-20.54v7.826a1.063 1.063 0 0 0 2.126 0V8.676c5.298 1.047 9.877 9.8 10.812 20.547-1.516-.796-3.569-1.21-5.497-1.21zm17.955.903c-1.383-.582-3.102-.902-4.842-.902-2.209 0-4.135.495-5.474 1.312-.453-5.67-1.877-10.956-4.094-15.106-1.04-1.945-2.207-3.55-3.463-4.787 9.254 2.51 16.601 10.23 18.295 19.673a8.788 8.788 0 0 0-.422-.19z"/>
            <g fill="#EC703A">
                <path d="M22.335 57.7c.612 0 1.205-.04 1.765-.112v-6.076a13.736 13.736 0 0 0-1.765-.112C18.836 51.4 16 52.672 16 54.242v.616c0 1.57 2.836 2.842 6.335 2.842zM22.335 61.3c.612 0 1.205-.044 1.765-.125v-1.983c-.56.08-1.153.125-1.765.125-3.054 0-5.603-1.08-6.202-2.517-.087.21-.133.426-.133.648v.687c0 1.748 2.836 3.165 6.335 3.165z"/>
                <path d="M23.87 62.046v-.154c-.544.08-1.12.125-1.715.125-2.967 0-5.444-1.08-6.026-2.517-.084.21-.129.426-.129.648v.687C16 62.583 18.756 64 22.155 64c.68 0 1.334-.057 1.945-.161a2.774 2.774 0 0 1-.23-1.107v-.686zM31.75 46C28.022 46 25 47.272 25 48.842v.616c0 1.57 3.022 2.842 6.75 2.842s6.75-1.272 6.75-2.842v-.616c0-1.57-3.022-2.842-6.75-2.842z"/>
                <path d="M31.75 53.917c-3.254 0-5.97-1.08-6.608-2.517-.093.21-.142.426-.142.648v.687c0 1.748 3.022 3.165 6.75 3.165s6.75-1.417 6.75-3.165v-.687c0-.222-.05-.439-.142-.648-.638 1.437-3.354 2.517-6.608 2.517z"/>
                <path d="M31.75 57.517c-3.254 0-5.97-1.08-6.608-2.517-.093.21-.142.426-.142.648v.687c0 1.748 3.022 3.165 6.75 3.165s6.75-1.417 6.75-3.165v-.687c0-.222-.05-.439-.142-.648-.638 1.437-3.354 2.517-6.608 2.517z"/>
                <path d="M31.75 61.117c-3.254 0-5.97-1.08-6.608-2.517-.093.21-.142.426-.142.648v.687c0 1.748 3.022 3.165 6.75 3.165s6.75-1.417 6.75-3.165v-.687c0-.222-.05-.439-.142-.648-.638 1.437-3.354 2.517-6.608 2.517z"/>
                <path d="M31.75 63.817c-3.254 0-5.97-1.08-6.608-2.517-.093.21-.142.426-.142.648v.687c0 1.748 3.022 3.165 6.75 3.165s6.75-1.417 6.75-3.165v-.687c0-.222-.05-.439-.142-.648-.638 1.437-3.354 2.517-6.608 2.517z"/>
            </g>
            <g fill="#EC703A">
                <path d="M76.665 57.7c-.612 0-1.205-.04-1.765-.112v-6.076c.56-.073 1.153-.112 1.765-.112 3.499 0 6.335 1.272 6.335 2.842v.616c0 1.57-2.836 2.842-6.335 2.842zM76.665 61.3c-.612 0-1.205-.044-1.765-.125v-1.983c.56.08 1.153.125 1.765.125 3.054 0 5.603-1.08 6.202-2.517.087.21.133.426.133.648v.687c0 1.748-2.836 3.165-6.335 3.165z"/>
                <path d="M75.13 62.046v-.154c.544.08 1.12.125 1.715.125 2.967 0 5.444-1.08 6.026-2.517.084.21.129.426.129.648v.687C83 62.583 80.244 64 76.845 64c-.68 0-1.334-.057-1.945-.161.152-.352.23-.723.23-1.107v-.686zM67.25 46c3.728 0 6.75 1.272 6.75 2.842v.616c0 1.57-3.022 2.842-6.75 2.842s-6.75-1.272-6.75-2.842v-.616c0-1.57 3.022-2.842 6.75-2.842z"/>
                <path d="M67.25 53.917c3.254 0 5.97-1.08 6.608-2.517.093.21.142.426.142.648v.687c0 1.748-3.022 3.165-6.75 3.165s-6.75-1.417-6.75-3.165v-.687c0-.222.05-.439.142-.648.638 1.437 3.354 2.517 6.608 2.517z"/>
                <path d="M67.25 57.517c3.254 0 5.97-1.08 6.608-2.517.093.21.142.426.142.648v.687c0 1.748-3.022 3.165-6.75 3.165s-6.75-1.417-6.75-3.165v-.687c0-.222.05-.439.142-.648.638 1.437 3.354 2.517 6.608 2.517z"/>
                <path d="M67.25 61.117c3.254 0 5.97-1.08 6.608-2.517.093.21.142.426.142.648v.687c0 1.748-3.022 3.165-6.75 3.165s-6.75-1.417-6.75-3.165v-.687c0-.222.05-.439.142-.648.638 1.437 3.354 2.517 6.608 2.517z"/>
                <path d="M67.25 63.817c3.254 0 5.97-1.08 6.608-2.517.093.21.142.426.142.648v.687c0 1.748-3.022 3.165-6.75 3.165s-6.75-1.417-6.75-3.165v-.687c0-.222.05-.439.142-.648.638 1.437 3.354 2.517 6.608 2.517z"/>
            </g>
        </g>
    </g>
</svg>
