<svg xmlns="http://www.w3.org/2000/svg" width="31" height="30" viewBox="0 0 31 30">
    <g fill="none" fill-rule="evenodd">
        <circle cx="16" cy="15" r="15" fill="#D8D8D8"/>
        <g fill-rule="nonzero">
            <path fill="#30D6CE" d="M31 15c0 8.284-6.716 15-15 15-8.284 0-15-6.716-15-15C1 6.716 7.716 0 16 0c8.284 0 15 6.716 15 15z"/>
            <path fill="#025F80" d="M29 10.389a.604.604 0 0 1-.597.611.604.604 0 0 1-.598-.611c0-5.055-4.02-9.167-8.96-9.167h-6.69c-4.94 0-8.96 4.112-8.96 9.167a.604.604 0 0 1-.598.611.604.604 0 0 1-.597-.611C2 4.66 6.555 0 12.155 0h6.69C24.445 0 29 4.66 29 10.389z"/>
            <path fill="#FF6466" d="M31 9.423v2.316c0 .96-.813 1.737-1.816 1.737h-.727c0 .29-.271.524-.605.524-.335 0-.606-.235-.606-.524h-1.09a.593.593 0 0 1-.605-.579V8.264c0-.32.27-.579.605-.579h.903l-.198-.519c-.171-.45.071-.95.543-1.113.471-.164.992.068 1.164.519l.424 1.113h.192c1.003 0 1.816.778 1.816 1.738zM4.844 7.685H3.94l.198-.519c.171-.45-.071-.95-.543-1.113-.471-.164-.992.068-1.164.519l-.424 1.113h-.192C.813 7.685 0 8.463 0 9.423v2.316c0 .96.813 1.737 1.816 1.737h3.028c.334 0 .605-.259.605-.579V8.264c0-.32-.27-.579-.605-.579z"/>
            <path fill="#FF393A" d="M29 8.8v2.4c0 .994-.808 1.8-1.805 1.8h-1.203a.6.6 0 0 1-.602-.6V7.6a.6.6 0 0 1 .602-.6h1.203C28.192 7 29 7.806 29 8.8zM1.805 11.2V8.8a1.8 1.8 0 0 1 1.097-1.656.075.075 0 0 0-.03-.144H1.806C.808 7 0 7.806 0 8.8v2.4c0 .994.808 1.8 1.805 1.8H3.61a1.803 1.803 0 0 1-1.805-1.8z"/>
            <path fill="#0069A3" d="M18 20.5c0 1.38-.895 2.5-2 2.5s-2-1.12-2-2.5.895-2.5 2-2.5 2 1.12 2 2.5z"/>
            <path fill="#08C" d="M17 20c0 .895-.411 1.663-1 2-.589-.337-1-1.105-1-2s.411-1.663 1-2c.589.337 1 1.105 1 2z"/>
            <path fill="#97F0F2" d="M27 10.592c0 4.745-3.774 8.592-8.43 8.592h-6.14c-4.656 0-8.43-3.847-8.43-8.592C4 5.847 7.774 2 12.43 2h6.14C23.227 2 27 5.847 27 10.592zm-8.128 9.819h-6.744c-3.28 0-6.122 1.91-7.515 4.698C7.31 28.115 11.189 30 15.5 30c4.311 0 8.19-1.885 10.887-4.89-1.393-2.79-4.235-4.699-7.515-4.699z"/>
            <path fill="#C0FBFF" d="M18.43 19.184h-3.86c-4.733 0-8.57-3.847-8.57-8.592C6 5.847 9.837 2 14.57 2h3.86C23.162 2 27 5.847 27 10.592c0 4.745-3.837 8.592-8.57 8.592zM15.306 30c4.383 0 8.327-1.885 11.07-4.89a8.567 8.567 0 0 0-7.642-4.699h-4.408c-3.97 0-7.31 2.707-8.283 6.38A14.911 14.911 0 0 0 15.307 30z"/>
            <path fill="#08C" d="M21 27.333c0 .647-.119 1.266-.336 1.84-1.61.573-3.35.827-5.164.827-1.815 0-3.554-.254-5.164-.828A5.173 5.173 0 0 1 10 27.333C10 24.388 12.462 22 15.5 22s5.5 2.388 5.5 5.333z"/>
            <path fill="#006CBC" d="M19.625 15.592h-8.25A4.368 4.368 0 0 1 7 11.23V9.36A4.368 4.368 0 0 1 11.375 5h8.25A4.368 4.368 0 0 1 24 9.361v1.87a4.368 4.368 0 0 1-4.375 4.36zm-6.062 12.952c-1.316-.293-2.276-1.442-2.282-2.787v-.025a5.57 5.57 0 0 1 1.007-3.202 5.596 5.596 0 0 0-2.069 6.538c1.646.603 3.425.932 5.281.932 1.855 0 3.634-.329 5.28-.932.084-.23.156-.466.21-.71-1.3.36-2.67.552-4.084.552-1.148 0-2.267-.127-3.343-.366z"/>
            <path fill="#08C" d="M19.661 16H13.34C10.943 16 9 14.156 9 11.882v-1.764C9 7.844 10.943 6 13.339 6h6.322C22.057 6 24 7.844 24 10.118v1.764C24 14.156 22.057 16 19.661 16z"/>
            <path fill="#30D6CE" d="M17.242 12.43c.24.238.24.622 0 .86a2.49 2.49 0 0 1-3.484 0 .602.602 0 0 1 0-.86.622.622 0 0 1 .871 0c.48.474 1.262.474 1.742 0a.618.618 0 0 1 .87 0zm-3.578-3.72a2.49 2.49 0 0 0-3.484 0 .602.602 0 0 0 0 .86c.24.237.63.237.871 0a1.244 1.244 0 0 1 1.742 0 .618.618 0 0 0 .87 0 .602.602 0 0 0 0-.86zm7.156 0a2.49 2.49 0 0 0-3.484 0 .602.602 0 0 0 0 .86c.24.237.63.237.871 0a1.245 1.245 0 0 1 1.742 0 .618.618 0 0 0 .87 0 .602.602 0 0 0 0-.86z"/>
            <path fill="#84DEEA" d="M17 26.882v3.091a18.724 18.724 0 0 1-2 0v-3.09c0-.488.448-.883 1-.883s1 .395 1 .882z"/>
            <path fill="#FFF5F5" d="M16.833 26.78v1.32c0 .497-.373.9-.833.9-.46 0-.833-.403-.833-.9v-1.32c0-.497.373-.9.833-.9.46 0 .833.403.833.9zM16 25.16c.552 0 1-.484 1-1.08 0-.596-.448-1.08-1-1.08s-1 .484-1 1.08c0 .596.448 1.08 1 1.08z"/>
            <path fill="#025F80" d="M29 13v1.333C29 15.803 27.89 17 26.524 17H16v-1.333h10.524c.682 0 1.238-.599 1.238-1.334V13H29z"/>
            <path fill="#FF6466" d="M17.977 17h-3.954A1.012 1.012 0 0 1 13 16c0-.552.458-1 1.023-1h3.954c.565 0 1.023.448 1.023 1s-.458 1-1.023 1z"/>
            <path fill="#FF895A" d="M17.025 17h-2.05A.988.988 0 0 1 14 16c0-.552.436-1 .975-1h2.05c.539 0 .975.448.975 1s-.436 1-.975 1z"/>
        </g>
    </g>
</svg>
