<svg xmlns="http://www.w3.org/2000/svg" width="36" height="36" viewBox="0 0 36 36">
    <g fill="none" fill-rule="evenodd">
        <circle cx="17.602" cy="17.602" r="17.602" stroke="#C2C2C2" stroke-width="1.443"/>
        <path fill="#C2C2C2" fill-rule="nonzero" d="M18 20.263c1.943 0 3.429-1.437 3.429-3.316v-6.631C21.429 8.436 19.943 7 18 7c-1.943 0-3.429 1.437-3.429 3.316v6.631c0 1.88 1.486 3.316 3.429 3.316zm6.057-3.316c0 3.316-2.857 5.637-6.057 5.637s-6.057-2.32-6.057-5.637H10c0 3.758 3.086 6.853 6.857 7.406V28h2.286v-3.647C22.914 23.8 26 20.705 26 16.947h-1.943z"/>
    </g>
</svg>
