<svg xmlns="http://www.w3.org/2000/svg" width="39" height="39" viewBox="0 0 39 39">
    <g fill="none" fill-rule="nonzero" stroke="#FFF" stroke-width=".5">
        <path fill="#636363" d="M38.2 33.331V.8H11.693v16.016l-3.378 3.379a4.235 4.235 0 0 0-1.073 1.823l-.69 2.416c-.141.49-.406.94-.767 1.302l-.719.719-.602-.602L.6 29.717 9.283 38.4l3.864-3.864-.602-.602.602-.603H38.2zM36.995 2.005v30.121h-21.3l1.615-.462a4.102 4.102 0 0 0 1.2-.56l4.894-2.83a2.184 2.184 0 0 0-1.244-3.98h-.398l-3.694 2.31 10.544-10.546c.356-.355.552-.827.552-1.33a1.882 1.882 0 0 0-3.21-1.329l-4.786 4.786a1.881 1.881 0 0 0-1.716-1.12 1.88 1.88 0 0 0-.625.114 1.877 1.877 0 0 0-1.785-1.318c-.487 0-.943.186-1.293.52a1.881 1.881 0 0 0-1.72-1.123c-.415 0-.806.14-1.131.388V2.005h24.097zM9.283 36.696l-6.98-6.98 2.161-2.16 6.98 6.98-2.16 2.16zm-3.365-9.39l.72-.718a4.235 4.235 0 0 0 1.072-1.823l.69-2.416c.141-.49.406-.941.767-1.303l4.385-4.385a.676.676 0 0 1 .955.955l-3.842 3.843.852.852 3.843-3.843 1.204-1.205a.676.676 0 0 1 .955.955l-5.047 5.048.852.852 5.048-5.048.602-.602a.676.676 0 0 1 .955.955l-5.65 5.65.852.853 5.65-5.65 6.025-6.025a.676.676 0 0 1 .955.955l-12.1 12.1 1.367 1.368 5.08-3.174h.053c.54 0 .978.439.978.979a.97.97 0 0 1-.38.778l-4.894 2.83c-.272.187-.57.328-.887.419l-2.742.784a4.218 4.218 0 0 0-1.824 1.072l-.719.72-5.775-5.775z"/>
        <path fill="#636363" d="M35.8 3.2H14.2v7.2h21.6z"/>
        <path fill="#EC703A" d="M34.6 9.2H15.4V4.4h19.2z"/>
        <path fill="#636363" d="M31 12h4.8v1.6H31zM31 13.6h4.8v1.6H31zM31 15.2h4.8v1.6H31zM31 16.8h4v1.6h-4zM35.226 23.812h-3.352l-.848-3.012h-1.653l-.836 3.008-3.364.006-.573 1.42 2.95 1.926-1.362 3.114 1.254.926 2.758-2.25 2.758 2.25 1.254-.926-1.362-3.114 2.95-1.925z"/>
        <path fill="#EC703A" d="M31.33 26.71l1.09 2.492-2.22-1.812-2.22 1.812 1.09-2.491-2.597-1.695 2.989-.005.74-2.664.75 2.669h2.974z"/>
    </g>
</svg>
