<svg xmlns="http://www.w3.org/2000/svg" width="70" height="63" viewBox="0 0 70 63">
    <g fill="none" fill-rule="evenodd">
        <g fill="#6D6D6D" fill-rule="nonzero">
            <path d="M5 15h2v24H5zM5 47h2v2H5zM15 4h29v2H15zM50 4h2v2h-2z"/>
            <path d="M70 0H49.162v2.072h17.04L34.848 29.425c-1.432-1.205-6.967-5.97-11.205-9.569l-1.338 1.58a5356.966 5356.966 0 0 1 12.567 10.715l33.06-28.839v47.376h-3.779c-.048.23-26.45.23-32.155.23H22V53h10.632c3.726 0 27.957-.24 30.946-.24H70V0z"/>
            <path d="M2.041 3.668c1.12 1.078 2.852 2.664 5.535 5.062 3.607 3.223 8.484 7.498 14.499 12.707l1.321-1.587C10.786 8.928 5.53 4.157 3.366 2.082H50V0H0v53h21.771v-2.082H2.041V3.668z"/>
            <path d="M5 42h2v2H5zM10 47h2v2h-2zM46 4h2v2h-2zM15 47h14v2H15z"/>
        </g>
        <circle cx="45.5" cy="46.5" r="16.5" fill="#EC703A"/>
        <path fill="#FFF" fill-rule="nonzero" d="M44 54h-8v-7.305h5.763v-6.36h-3.596v3.801H36V38h7.931v11.03h-5.764v2.634H44zM56 46.69h-2.595V38h-2.368v8.69h-2.669V38H46v11.003h5.037V54h2.368v-4.997H56z"/>
    </g>
</svg>
