<svg xmlns="http://www.w3.org/2000/svg" width="12" height="10" viewBox="0 0 12 10">
    <g fill="#FFF" fill-rule="nonzero">
        <path d="M11.4 9.257H3.343c-.332 0-.601-.307-.601-.686 0-.378.269-.685.6-.685H11.4c.332 0 .601.307.601.685 0 .38-.269.686-.6.686zM11.4 5.486H3.343c-.332 0-.601-.307-.601-.686 0-.379.269-.686.6-.686H11.4c.332 0 .601.307.601.686 0 .379-.269.686-.6.686zM11.4 1.371H3.343c-.332 0-.601-.307-.601-.685 0-.379.269-.686.6-.686H11.4c.332 0 .601.307.601.686 0 .378-.269.685-.6.685z"/>
        <circle cx=".857" cy=".857" r="1"/>
        <circle cx=".857" cy="4.629" r="1"/>
        <circle cx=".857" cy="8.4" r="1"/>
    </g>
</svg>
