<svg xmlns="http://www.w3.org/2000/svg" width="100" height="70" viewBox="0 0 100 70">
    <g fill="none" fill-rule="evenodd">
        <path d="M0 0h100v70H0z"/>
        <path fill="#636363" fill-rule="nonzero" stroke="#FFF" stroke-width=".7" d="M64.724 26.054l-8.569-11.568a1.2 1.2 0 0 0-1.928 0l-8.57 11.568a1.2 1.2 0 0 0 .965 1.914h3.085v5.8a4.383 4.383 0 0 0-2.014-.488h-2.142a4.418 4.418 0 0 0-4.413 4.413v2.502a4.384 4.384 0 0 0-2.014-.488h-2.142a4.418 4.418 0 0 0-4.413 4.413v2.501a4.389 4.389 0 0 0-2.013-.488h-2.143A4.418 4.418 0 0 0 24 50.547v3.213a1.2 1.2 0 0 0 1.2 1.2h34.275a1.2 1.2 0 0 0 1.2-1.2V27.968h3.085a1.2 1.2 0 0 0 .964-1.914zM26.4 50.547c0-1.11.903-2.014 2.013-2.014h2.142c1.11 0 2.014.904 2.014 2.014v2.013H26.4v-2.013zm8.569 0V44.12c0-1.11.903-2.013 2.013-2.013h2.142c1.11 0 2.014.903 2.014 2.013v8.44h-6.17v-2.013zm8.569-6.427v-6.427c0-1.11.903-2.013 2.013-2.013h2.142c1.11 0 2.014.903 2.014 2.013V52.56h-6.17v-8.44zm15.937-18.552a1.2 1.2 0 0 0-1.2 1.2V52.56h-6.168V26.768a1.2 1.2 0 0 0-1.2-1.2h-1.903l6.187-8.352 6.187 8.352h-1.903z"/>
        <path fill="#EC703A" fill-rule="nonzero" d="M59.475 25.568a1.2 1.2 0 0 0-1.2 1.2V52.56h-6.168V26.768a1.2 1.2 0 0 0-1.2-1.2h-1.903l6.187-8.352 6.187 8.352h-1.903z"/>
        <text fill="#636363" font-family="Montserrat-SemiBold, Montserrat" font-size="16" font-weight="500" transform="translate(24 5)">
            <tspan x="39.224" y="15">₹</tspan>
        </text>
    </g>
</svg>
