<svg xmlns="http://www.w3.org/2000/svg" width="21" height="17" viewBox="0 0 21 17">
    <path fill="#B8B8B8" fill-rule="nonzero" d="M7.834 17c-.908 0-1.842-.073-2.783-.219-1.656-.257-3.332-1.113-3.807-1.37L0 14.738l1.347-.438c1.473-.479 2.368-.776 3.477-1.241-1.11-.532-1.966-1.489-2.378-2.726l-.313-.94.257.038a4.632 4.632 0 0 1-.585-.714c-.53-.796-.812-1.77-.752-2.605l.06-.821.496.19a4.565 4.565 0 0 1-.45-1.248 4.706 4.706 0 0 1 .512-3.2l.433-.785.579.688C4.515 3.112 6.835 4.403 9.588 4.78c-.112-.767-.028-1.507.251-2.17.325-.773.903-1.428 1.67-1.894a5.06 5.06 0 0 1 2.912-.708 4.677 4.677 0 0 1 2.859 1.167c.383-.099.665-.204 1.046-.346.23-.085.49-.182.815-.293l1.2-.41-.782 2.21.16-.01L21 2.27l-.757 1.024c-.044.058-.055.075-.07.098-.061.091-.137.204-1.176 1.577-.26.344-.39.791-.366 1.26.092 1.784-.13 3.398-.658 4.797a8.484 8.484 0 0 1-2.304 3.376c-1.272 1.133-2.895 1.909-4.823 2.306-.945.194-1.96.292-3.012.292z"/>
</svg>
