<svg xmlns="http://www.w3.org/2000/svg" width="16" height="20" viewBox="0 0 16 20">
    <g fill="#B8B8B8" fill-rule="nonzero">
        <path d="M15.444 9.822a1.938 1.938 0 0 0-.61-1.05 1.941 1.941 0 0 0-1.087-.499c-1.302-.141-3.264-.212-5.887-.212-2.624 0-4.582.07-5.876.212-.418.05-.782.216-1.093.499a2.015 2.015 0 0 0-.615 1.05C.092 10.642 0 11.879 0 13.534c0 1.683.092 2.92.276 3.713.092.417.295.767.61 1.05a1.88 1.88 0 0 0 1.087.487c1.301.149 3.263.223 5.887.223 2.623 0 4.586-.074 5.886-.223.41-.042.771-.205 1.082-.488.312-.282.517-.632.616-1.05.184-.82.276-2.057.276-3.712 0-1.683-.093-2.92-.276-3.712zM4.487 10.893H3.352v6.035h-1.06v-6.035H1.178v-.997h3.31v.997h-.001zm2.864 6.035h-.944v-.573c-.382.432-.743.647-1.082.647-.325 0-.53-.13-.615-.392-.057-.17-.085-.428-.085-.774v-4.147h.944v3.86c0 .227.003.35.01.372.022.148.096.222.223.222.191 0 .393-.148.605-.445v-4.01h.944v5.24zm3.606-1.57c0 .517-.032.87-.095 1.061-.12.389-.371.583-.753.583-.34 0-.668-.194-.987-.583v.51h-.944V9.895h.944v2.302c.304-.382.633-.573.987-.573.382 0 .632.198.753.594.063.184.095.534.095 1.05v2.09zm3.585-.87h-1.898v.924c0 .487.162.731.487.731.234 0 .375-.127.425-.382.014-.07.02-.286.02-.646h.966v.137c0 .347-.007.552-.021.616-.021.19-.095.381-.223.572-.254.375-.637.562-1.146.562-.487 0-.87-.18-1.145-.54-.205-.262-.307-.672-.307-1.23v-1.836c0-.558.098-.969.296-1.23.276-.36.654-.541 1.135-.541.474 0 .85.18 1.125.54.19.262.286.673.286 1.231v1.093z"/>
        <path d="M9.6 12.484c-.163 0-.322.078-.478.234v3.192c.156.156.315.233.477.233.276 0 .414-.236.414-.71v-2.238c0-.474-.138-.71-.414-.71zM13.12 12.484c-.317 0-.476.24-.476.721v.488h.954v-.488c0-.48-.159-.72-.477-.72zM3.872 4.232v2.875h1.06V4.232L6.217 0H5.134l-.721 2.79L3.66 0H2.536c.198.594.427 1.255.69 1.983.331.976.547 1.726.646 2.25zM7.637 7.18c.488 0 .863-.18 1.124-.54.199-.262.297-.679.297-1.252V3.532c0-.566-.099-.98-.297-1.241-.261-.36-.636-.54-1.124-.54-.474 0-.845.18-1.114.54-.197.262-.296.675-.296 1.241v1.856c0 .566.098.983.296 1.252.27.36.64.54 1.114.54zm-.456-3.839c0-.488.152-.732.456-.732.304 0 .456.244.456.732v2.227c0 .496-.152.743-.456.743-.304 0-.456-.248-.456-.743V3.341zM10.554 7.18c.354 0 .718-.218 1.093-.657v.583h.965V1.814h-.965v4.04c-.213.305-.414.457-.605.457-.128 0-.202-.078-.223-.233a2.77 2.77 0 0 1-.01-.372V1.814h-.966v4.179c0 .36.029.625.085.795.092.262.3.393.626.393z"/>
    </g>
</svg>
